<svg xmlns="http://www.w3.org/2000/svg" viewBox="0 0 200 300" preserveAspectRatio="none"><defs><radialGradient id="rim" cx="0.5" cy="0.5" r="0.6"><stop offset="0.5" stop-color="#ff5a85" stop-opacity="0"/><stop offset="0.8" stop-color="#ff4a82" stop-opacity="0.08"/><stop offset="1" stop-color="#ff4a82" stop-opacity="0.22"/></radialGradient><filter id="g" x="-20%" y="-20%" width="140%" height="140%"><feDropShadow dx="0" dy="0" stdDeviation="1.6" flood-color="#ff4a82" flood-opacity="0.5"/></filter></defs><rect width="200" height="300" fill="url(#rim)"/><g filter="url(#g)"><g transform="translate(15.41 101.35) rotate(16.7) scale(0.434)" opacity="0.81"><path d="M12 21s-1.45-1.32-3.6-3.3C5.4 14.6 2 11.5 2 7.8 2 5.1 4.1 3 6.8 3c1.7 0 3.2 .9 4.2 2.3C12 3.9 13.5 3 15.2 3 17.9 3 20 5.1 20 7.8c0 3.7-3.4 6.8-6.4 9.9C13.45 19.68 12 21 12 21z" fill="none" stroke="#ff82aa" stroke-width="2.2" transform="translate(-12 -12)"/></g><g transform="translate(55.42 296.64) rotate(-16.3) scale(0.4193)" opacity="0.93"><path d="M12 21s-1.45-1.32-3.6-3.3C5.4 14.6 2 11.5 2 7.8 2 5.1 4.1 3 6.8 3c1.7 0 3.2 .9 4.2 2.3C12 3.9 13.5 3 15.2 3 17.9 3 20 5.1 20 7.8c0 3.7-3.4 6.8-6.4 9.9C13.45 19.68 12 21 12 21z" fill="#ff6696" transform="translate(-12 -12)"/></g><g transform="translate(106.11 262.34) rotate(22.8) scale(0.314)" opacity="0.72"><path d="M12 21s-1.45-1.32-3.6-3.3C5.4 14.6 2 11.5 2 7.8 2 5.1 4.1 3 6.8 3c1.7 0 3.2 .9 4.2 2.3C12 3.9 13.5 3 15.2 3 17.9 3 20 5.1 20 7.8c0 3.7-3.4 6.8-6.4 9.9C13.45 19.68 12 21 12 21z" fill="#ff4a82" transform="translate(-12 -12)"/></g><g transform="translate(148.98 20.06) rotate(-3.2) scale(0.3909)" opacity="0.83"><path d="M12 21s-1.45-1.32-3.6-3.3C5.4 14.6 2 11.5 2 7.8 2 5.1 4.1 3 6.8 3c1.7 0 3.2 .9 4.2 2.3C12 3.9 13.5 3 15.2 3 17.9 3 20 5.1 20 7.8c0 3.7-3.4 6.8-6.4 9.9C13.45 19.68 12 21 12 21z" fill="#ff82aa" transform="translate(-12 -12)"/></g><g transform="translate(54 23.95) rotate(19.5) scale(0.4569)" opacity="0.8"><path d="M12 21s-1.45-1.32-3.6-3.3C5.4 14.6 2 11.5 2 7.8 2 5.1 4.1 3 6.8 3c1.7 0 3.2 .9 4.2 2.3C12 3.9 13.5 3 15.2 3 17.9 3 20 5.1 20 7.8c0 3.7-3.4 6.8-6.4 9.9C13.45 19.68 12 21 12 21z" fill="none" stroke="#ff6696" stroke-width="2.2" transform="translate(-12 -12)"/></g><g transform="translate(4.97 226.23) rotate(-7.4) scale(0.4498)" opacity="0.9"><path d="M12 21s-1.45-1.32-3.6-3.3C5.4 14.6 2 11.5 2 7.8 2 5.1 4.1 3 6.8 3c1.7 0 3.2 .9 4.2 2.3C12 3.9 13.5 3 15.2 3 17.9 3 20 5.1 20 7.8c0 3.7-3.4 6.8-6.4 9.9C13.45 19.68 12 21 12 21z" fill="#ff82aa" transform="translate(-12 -12)"/></g><g transform="translate(117.69 266.43) rotate(22.1) scale(0.4325)" opacity="0.74"><path d="M12 21s-1.45-1.32-3.6-3.3C5.4 14.6 2 11.5 2 7.8 2 5.1 4.1 3 6.8 3c1.7 0 3.2 .9 4.2 2.3C12 3.9 13.5 3 15.2 3 17.9 3 20 5.1 20 7.8c0 3.7-3.4 6.8-6.4 9.9C13.45 19.68 12 21 12 21z" fill="#ff4a82" transform="translate(-12 -12)"/></g><g transform="translate(95.63 292.51) rotate(8.1) scale(0.5499)" opacity="0.9"><path d="M12 21s-1.45-1.32-3.6-3.3C5.4 14.6 2 11.5 2 7.8 2 5.1 4.1 3 6.8 3c1.7 0 3.2 .9 4.2 2.3C12 3.9 13.5 3 15.2 3 17.9 3 20 5.1 20 7.8c0 3.7-3.4 6.8-6.4 9.9C13.45 19.68 12 21 12 21z" fill="#ff4a82" transform="translate(-12 -12)"/></g><g transform="translate(120.06 286.26) rotate(-0.3) scale(0.4767)" opacity="0.87"><path d="M12 21s-1.45-1.32-3.6-3.3C5.4 14.6 2 11.5 2 7.8 2 5.1 4.1 3 6.8 3c1.7 0 3.2 .9 4.2 2.3C12 3.9 13.5 3 15.2 3 17.9 3 20 5.1 20 7.8c0 3.7-3.4 6.8-6.4 9.9C13.45 19.68 12 21 12 21z" fill="none" stroke="#ff82aa" stroke-width="2.2" transform="translate(-12 -12)"/></g><g transform="translate(138.87 26.41) rotate(-17.5) scale(0.3873)" opacity="0.79"><path d="M12 21s-1.45-1.32-3.6-3.3C5.4 14.6 2 11.5 2 7.8 2 5.1 4.1 3 6.8 3c1.7 0 3.2 .9 4.2 2.3C12 3.9 13.5 3 15.2 3 17.9 3 20 5.1 20 7.8c0 3.7-3.4 6.8-6.4 9.9C13.45 19.68 12 21 12 21z" fill="#ff6696" transform="translate(-12 -12)"/></g><g transform="translate(18.09 216.96) rotate(-6.2) scale(0.3669)" opacity="0.78"><path d="M12 21s-1.45-1.32-3.6-3.3C5.4 14.6 2 11.5 2 7.8 2 5.1 4.1 3 6.8 3c1.7 0 3.2 .9 4.2 2.3C12 3.9 13.5 3 15.2 3 17.9 3 20 5.1 20 7.8c0 3.7-3.4 6.8-6.4 9.9C13.45 19.68 12 21 12 21z" fill="#ff6696" transform="translate(-12 -12)"/></g><g transform="translate(171.51 171.08) rotate(11.8) scale(0.3493)" opacity="0.69"><path d="M12 21s-1.45-1.32-3.6-3.3C5.4 14.6 2 11.5 2 7.8 2 5.1 4.1 3 6.8 3c1.7 0 3.2 .9 4.2 2.3C12 3.9 13.5 3 15.2 3 17.9 3 20 5.1 20 7.8c0 3.7-3.4 6.8-6.4 9.9C13.45 19.68 12 21 12 21z" fill="#ff6696" transform="translate(-12 -12)"/></g><g transform="translate(143.65 27.02) rotate(-8.4) scale(0.4119)" opacity="0.78"><path d="M12 21s-1.45-1.32-3.6-3.3C5.4 14.6 2 11.5 2 7.8 2 5.1 4.1 3 6.8 3c1.7 0 3.2 .9 4.2 2.3C12 3.9 13.5 3 15.2 3 17.9 3 20 5.1 20 7.8c0 3.7-3.4 6.8-6.4 9.9C13.45 19.68 12 21 12 21z" fill="none" stroke="#ff6696" stroke-width="2.2" transform="translate(-12 -12)"/></g><g transform="translate(25.76 289.9) rotate(7.1) scale(0.5675)" opacity="0.89"><path d="M12 21s-1.45-1.32-3.6-3.3C5.4 14.6 2 11.5 2 7.8 2 5.1 4.1 3 6.8 3c1.7 0 3.2 .9 4.2 2.3C12 3.9 13.5 3 15.2 3 17.9 3 20 5.1 20 7.8c0 3.7-3.4 6.8-6.4 9.9C13.45 19.68 12 21 12 21z" fill="#ff6696" transform="translate(-12 -12)"/></g><g transform="translate(198.82 128.41) rotate(19.8) scale(0.4973)" opacity="0.94"><path d="M12 21s-1.45-1.32-3.6-3.3C5.4 14.6 2 11.5 2 7.8 2 5.1 4.1 3 6.8 3c1.7 0 3.2 .9 4.2 2.3C12 3.9 13.5 3 15.2 3 17.9 3 20 5.1 20 7.8c0 3.7-3.4 6.8-6.4 9.9C13.45 19.68 12 21 12 21z" fill="#ff82aa" transform="translate(-12 -12)"/></g><g transform="translate(137.31 298.92) rotate(-10.3) scale(0.6542)" opacity="0.94"><path d="M12 21s-1.45-1.32-3.6-3.3C5.4 14.6 2 11.5 2 7.8 2 5.1 4.1 3 6.8 3c1.7 0 3.2 .9 4.2 2.3C12 3.9 13.5 3 15.2 3 17.9 3 20 5.1 20 7.8c0 3.7-3.4 6.8-6.4 9.9C13.45 19.68 12 21 12 21z" fill="#ff82aa" transform="translate(-12 -12)"/></g><g transform="translate(40.51 259.74) rotate(-2.7) scale(0.3405)" opacity="0.7"><path d="M12 21s-1.45-1.32-3.6-3.3C5.4 14.6 2 11.5 2 7.8 2 5.1 4.1 3 6.8 3c1.7 0 3.2 .9 4.2 2.3C12 3.9 13.5 3 15.2 3 17.9 3 20 5.1 20 7.8c0 3.7-3.4 6.8-6.4 9.9C13.45 19.68 12 21 12 21z" fill="none" stroke="#ff4a82" stroke-width="2.2" transform="translate(-12 -12)"/></g><g transform="translate(116.54 51.78) rotate(-12.9) scale(0.3777)" opacity="0.63"><path d="M12 21s-1.45-1.32-3.6-3.3C5.4 14.6 2 11.5 2 7.8 2 5.1 4.1 3 6.8 3c1.7 0 3.2 .9 4.2 2.3C12 3.9 13.5 3 15.2 3 17.9 3 20 5.1 20 7.8c0 3.7-3.4 6.8-6.4 9.9C13.45 19.68 12 21 12 21z" fill="#ff4a82" transform="translate(-12 -12)"/></g><g transform="translate(2.38 109.09) rotate(11.7) scale(0.4317)" opacity="0.93"><path d="M12 21s-1.45-1.32-3.6-3.3C5.4 14.6 2 11.5 2 7.8 2 5.1 4.1 3 6.8 3c1.7 0 3.2 .9 4.2 2.3C12 3.9 13.5 3 15.2 3 17.9 3 20 5.1 20 7.8c0 3.7-3.4 6.8-6.4 9.9C13.45 19.68 12 21 12 21z" fill="#ff6696" transform="translate(-12 -12)"/></g><g transform="translate(8.72 226.35) rotate(15.6) scale(0.5887)" opacity="0.87"><path d="M12 21s-1.45-1.32-3.6-3.3C5.4 14.6 2 11.5 2 7.8 2 5.1 4.1 3 6.8 3c1.7 0 3.2 .9 4.2 2.3C12 3.9 13.5 3 15.2 3 17.9 3 20 5.1 20 7.8c0 3.7-3.4 6.8-6.4 9.9C13.45 19.68 12 21 12 21z" fill="#ff4a82" transform="translate(-12 -12)"/></g><g transform="translate(126 263.41) rotate(8.5) scale(0.3937)" opacity="0.73"><path d="M12 21s-1.45-1.32-3.6-3.3C5.4 14.6 2 11.5 2 7.8 2 5.1 4.1 3 6.8 3c1.7 0 3.2 .9 4.2 2.3C12 3.9 13.5 3 15.2 3 17.9 3 20 5.1 20 7.8c0 3.7-3.4 6.8-6.4 9.9C13.45 19.68 12 21 12 21z" fill="none" stroke="#ff4a82" stroke-width="2.2" transform="translate(-12 -12)"/></g><g transform="translate(4.42 268.97) rotate(-0.7) scale(0.4535)" opacity="0.91"><path d="M12 21s-1.45-1.32-3.6-3.3C5.4 14.6 2 11.5 2 7.8 2 5.1 4.1 3 6.8 3c1.7 0 3.2 .9 4.2 2.3C12 3.9 13.5 3 15.2 3 17.9 3 20 5.1 20 7.8c0 3.7-3.4 6.8-6.4 9.9C13.45 19.68 12 21 12 21z" fill="#ff82aa" transform="translate(-12 -12)"/></g><g transform="translate(109.18 3.4) rotate(-1.1) scale(0.4388)" opacity="0.93"><path d="M12 21s-1.45-1.32-3.6-3.3C5.4 14.6 2 11.5 2 7.8 2 5.1 4.1 3 6.8 3c1.7 0 3.2 .9 4.2 2.3C12 3.9 13.5 3 15.2 3 17.9 3 20 5.1 20 7.8c0 3.7-3.4 6.8-6.4 9.9C13.45 19.68 12 21 12 21z" fill="#ff6696" transform="translate(-12 -12)"/></g><g transform="translate(10.78 94.08) rotate(-10.1) scale(0.5825)" opacity="0.85"><path d="M12 21s-1.45-1.32-3.6-3.3C5.4 14.6 2 11.5 2 7.8 2 5.1 4.1 3 6.8 3c1.7 0 3.2 .9 4.2 2.3C12 3.9 13.5 3 15.2 3 17.9 3 20 5.1 20 7.8c0 3.7-3.4 6.8-6.4 9.9C13.45 19.68 12 21 12 21z" fill="#ff82aa" transform="translate(-12 -12)"/></g><g transform="translate(198.64 273.53) rotate(2.3) scale(0.4832)" opacity="0.94"><path d="M12 21s-1.45-1.32-3.6-3.3C5.4 14.6 2 11.5 2 7.8 2 5.1 4.1 3 6.8 3c1.7 0 3.2 .9 4.2 2.3C12 3.9 13.5 3 15.2 3 17.9 3 20 5.1 20 7.8c0 3.7-3.4 6.8-6.4 9.9C13.45 19.68 12 21 12 21z" fill="none" stroke="#ff4a82" stroke-width="2.2" transform="translate(-12 -12)"/></g><g transform="translate(23.56 212.47) rotate(16.9) scale(0.3603)" opacity="0.73"><path d="M12 21s-1.45-1.32-3.6-3.3C5.4 14.6 2 11.5 2 7.8 2 5.1 4.1 3 6.8 3c1.7 0 3.2 .9 4.2 2.3C12 3.9 13.5 3 15.2 3 17.9 3 20 5.1 20 7.8c0 3.7-3.4 6.8-6.4 9.9C13.45 19.68 12 21 12 21z" fill="#ff4a82" transform="translate(-12 -12)"/></g><g transform="translate(192.49 177.67) rotate(-7.1) scale(0.4586)" opacity="0.88"><path d="M12 21s-1.45-1.32-3.6-3.3C5.4 14.6 2 11.5 2 7.8 2 5.1 4.1 3 6.8 3c1.7 0 3.2 .9 4.2 2.3C12 3.9 13.5 3 15.2 3 17.9 3 20 5.1 20 7.8c0 3.7-3.4 6.8-6.4 9.9C13.45 19.68 12 21 12 21z" fill="#ff82aa" transform="translate(-12 -12)"/></g><g transform="translate(196.45 56.11) rotate(-7) scale(0.5253)" opacity="0.92"><path d="M12 21s-1.45-1.32-3.6-3.3C5.4 14.6 2 11.5 2 7.8 2 5.1 4.1 3 6.8 3c1.7 0 3.2 .9 4.2 2.3C12 3.9 13.5 3 15.2 3 17.9 3 20 5.1 20 7.8c0 3.7-3.4 6.8-6.4 9.9C13.45 19.68 12 21 12 21z" fill="#ff6696" transform="translate(-12 -12)"/></g><g transform="translate(177.8 267.72) rotate(17.1) scale(0.508)" opacity="0.75"><path d="M12 21s-1.45-1.32-3.6-3.3C5.4 14.6 2 11.5 2 7.8 2 5.1 4.1 3 6.8 3c1.7 0 3.2 .9 4.2 2.3C12 3.9 13.5 3 15.2 3 17.9 3 20 5.1 20 7.8c0 3.7-3.4 6.8-6.4 9.9C13.45 19.68 12 21 12 21z" fill="none" stroke="#ff6696" stroke-width="2.2" transform="translate(-12 -12)"/></g><g transform="translate(11.09 258.05) rotate(-7.6) scale(0.5614)" opacity="0.85"><path d="M12 21s-1.45-1.32-3.6-3.3C5.4 14.6 2 11.5 2 7.8 2 5.1 4.1 3 6.8 3c1.7 0 3.2 .9 4.2 2.3C12 3.9 13.5 3 15.2 3 17.9 3 20 5.1 20 7.8c0 3.7-3.4 6.8-6.4 9.9C13.45 19.68 12 21 12 21z" fill="#ff4a82" transform="translate(-12 -12)"/></g><g transform="translate(182.95 260.89) rotate(-8.4) scale(0.5428)" opacity="0.79"><path d="M12 21s-1.45-1.32-3.6-3.3C5.4 14.6 2 11.5 2 7.8 2 5.1 4.1 3 6.8 3c1.7 0 3.2 .9 4.2 2.3C12 3.9 13.5 3 15.2 3 17.9 3 20 5.1 20 7.8c0 3.7-3.4 6.8-6.4 9.9C13.45 19.68 12 21 12 21z" fill="#ff6696" transform="translate(-12 -12)"/></g><g transform="translate(119.39 4.2) rotate(-0.1) scale(0.6472)" opacity="0.92"><path d="M12 21s-1.45-1.32-3.6-3.3C5.4 14.6 2 11.5 2 7.8 2 5.1 4.1 3 6.8 3c1.7 0 3.2 .9 4.2 2.3C12 3.9 13.5 3 15.2 3 17.9 3 20 5.1 20 7.8c0 3.7-3.4 6.8-6.4 9.9C13.45 19.68 12 21 12 21z" fill="#ff6696" transform="translate(-12 -12)"/></g><g transform="translate(196.01 14.66) rotate(-2.3) scale(0.4114)" opacity="0.91"><path d="M12 21s-1.45-1.32-3.6-3.3C5.4 14.6 2 11.5 2 7.8 2 5.1 4.1 3 6.8 3c1.7 0 3.2 .9 4.2 2.3C12 3.9 13.5 3 15.2 3 17.9 3 20 5.1 20 7.8c0 3.7-3.4 6.8-6.4 9.9C13.45 19.68 12 21 12 21z" fill="none" stroke="#ff82aa" stroke-width="2.2" transform="translate(-12 -12)"/></g><g transform="translate(95.85 2.07) rotate(-4.9) scale(0.5535)" opacity="0.94"><path d="M12 21s-1.45-1.32-3.6-3.3C5.4 14.6 2 11.5 2 7.8 2 5.1 4.1 3 6.8 3c1.7 0 3.2 .9 4.2 2.3C12 3.9 13.5 3 15.2 3 17.9 3 20 5.1 20 7.8c0 3.7-3.4 6.8-6.4 9.9C13.45 19.68 12 21 12 21z" fill="#ff6696" transform="translate(-12 -12)"/></g><g transform="translate(191.43 58.99) rotate(-19.6) scale(0.4091)" opacity="0.87"><path d="M12 21s-1.45-1.32-3.6-3.3C5.4 14.6 2 11.5 2 7.8 2 5.1 4.1 3 6.8 3c1.7 0 3.2 .9 4.2 2.3C12 3.9 13.5 3 15.2 3 17.9 3 20 5.1 20 7.8c0 3.7-3.4 6.8-6.4 9.9C13.45 19.68 12 21 12 21z" fill="#ff4a82" transform="translate(-12 -12)"/></g><g transform="translate(65.51 26.4) rotate(7.8) scale(0.3748)" opacity="0.79"><path d="M12 21s-1.45-1.32-3.6-3.3C5.4 14.6 2 11.5 2 7.8 2 5.1 4.1 3 6.8 3c1.7 0 3.2 .9 4.2 2.3C12 3.9 13.5 3 15.2 3 17.9 3 20 5.1 20 7.8c0 3.7-3.4 6.8-6.4 9.9C13.45 19.68 12 21 12 21z" fill="#ff6696" transform="translate(-12 -12)"/></g></g></svg>
