<svg xmlns="http://www.w3.org/2000/svg" viewBox="0 0 200 300" preserveAspectRatio="none"><defs><radialGradient id="rim" cx="0.5" cy="0.5" r="0.6"><stop offset="0.5" stop-color="#ff5a85" stop-opacity="0"/><stop offset="0.8" stop-color="#ff4a82" stop-opacity="0.08"/><stop offset="1" stop-color="#ff4a82" stop-opacity="0.22"/></radialGradient><filter id="g" x="-20%" y="-20%" width="140%" height="140%"><feDropShadow dx="0" dy="0" stdDeviation="1.6" flood-color="#ff4a82" flood-opacity="0.5"/></filter></defs><rect width="200" height="300" fill="url(#rim)"/><g filter="url(#g)"><g transform="translate(115.14 287.28) rotate(-22.8) scale(0.4151)" opacity="0.87"><path d="M12 21s-1.45-1.32-3.6-3.3C5.4 14.6 2 11.5 2 7.8 2 5.1 4.1 3 6.8 3c1.7 0 3.2 .9 4.2 2.3C12 3.9 13.5 3 15.2 3 17.9 3 20 5.1 20 7.8c0 3.7-3.4 6.8-6.4 9.9C13.45 19.68 12 21 12 21z" fill="none" stroke="#ff6696" stroke-width="2.2" transform="translate(-12 -12)"/></g><g transform="translate(199.24 82.54) rotate(1) scale(0.5989)" opacity="0.94"><path d="M12 21s-1.45-1.32-3.6-3.3C5.4 14.6 2 11.5 2 7.8 2 5.1 4.1 3 6.8 3c1.7 0 3.2 .9 4.2 2.3C12 3.9 13.5 3 15.2 3 17.9 3 20 5.1 20 7.8c0 3.7-3.4 6.8-6.4 9.9C13.45 19.68 12 21 12 21z" fill="#ff82aa" transform="translate(-12 -12)"/></g><g transform="translate(18.81 81.7) rotate(-15.6) scale(0.3741)" opacity="0.78"><path d="M12 21s-1.45-1.32-3.6-3.3C5.4 14.6 2 11.5 2 7.8 2 5.1 4.1 3 6.8 3c1.7 0 3.2 .9 4.2 2.3C12 3.9 13.5 3 15.2 3 17.9 3 20 5.1 20 7.8c0 3.7-3.4 6.8-6.4 9.9C13.45 19.68 12 21 12 21z" fill="#ff82aa" transform="translate(-12 -12)"/></g><g transform="translate(137.32 11.53) rotate(15.4) scale(0.541)" opacity="0.88"><path d="M12 21s-1.45-1.32-3.6-3.3C5.4 14.6 2 11.5 2 7.8 2 5.1 4.1 3 6.8 3c1.7 0 3.2 .9 4.2 2.3C12 3.9 13.5 3 15.2 3 17.9 3 20 5.1 20 7.8c0 3.7-3.4 6.8-6.4 9.9C13.45 19.68 12 21 12 21z" fill="#ff82aa" transform="translate(-12 -12)"/></g><g transform="translate(23.38 34.49) rotate(2.4) scale(0.308)" opacity="0.74"><path d="M12 21s-1.45-1.32-3.6-3.3C5.4 14.6 2 11.5 2 7.8 2 5.1 4.1 3 6.8 3c1.7 0 3.2 .9 4.2 2.3C12 3.9 13.5 3 15.2 3 17.9 3 20 5.1 20 7.8c0 3.7-3.4 6.8-6.4 9.9C13.45 19.68 12 21 12 21z" fill="none" stroke="#ff82aa" stroke-width="2.2" transform="translate(-12 -12)"/></g><g transform="translate(26.89 191.83) rotate(-19.2) scale(0.4341)" opacity="0.7"><path d="M12 21s-1.45-1.32-3.6-3.3C5.4 14.6 2 11.5 2 7.8 2 5.1 4.1 3 6.8 3c1.7 0 3.2 .9 4.2 2.3C12 3.9 13.5 3 15.2 3 17.9 3 20 5.1 20 7.8c0 3.7-3.4 6.8-6.4 9.9C13.45 19.68 12 21 12 21z" fill="#ff4a82" transform="translate(-12 -12)"/></g><g transform="translate(79.85 234.62) rotate(7.3) scale(0.2455)" opacity="0.55"><path d="M12 21s-1.45-1.32-3.6-3.3C5.4 14.6 2 11.5 2 7.8 2 5.1 4.1 3 6.8 3c1.7 0 3.2 .9 4.2 2.3C12 3.9 13.5 3 15.2 3 17.9 3 20 5.1 20 7.8c0 3.7-3.4 6.8-6.4 9.9C13.45 19.68 12 21 12 21z" fill="#ff4a82" transform="translate(-12 -12)"/></g><g transform="translate(172.48 105.79) rotate(-22.4) scale(0.3538)" opacity="0.7"><path d="M12 21s-1.45-1.32-3.6-3.3C5.4 14.6 2 11.5 2 7.8 2 5.1 4.1 3 6.8 3c1.7 0 3.2 .9 4.2 2.3C12 3.9 13.5 3 15.2 3 17.9 3 20 5.1 20 7.8c0 3.7-3.4 6.8-6.4 9.9C13.45 19.68 12 21 12 21z" fill="#ff6696" transform="translate(-12 -12)"/></g><g transform="translate(162.72 272.77) rotate(-20.3) scale(0.5175)" opacity="0.78"><path d="M12 21s-1.45-1.32-3.6-3.3C5.4 14.6 2 11.5 2 7.8 2 5.1 4.1 3 6.8 3c1.7 0 3.2 .9 4.2 2.3C12 3.9 13.5 3 15.2 3 17.9 3 20 5.1 20 7.8c0 3.7-3.4 6.8-6.4 9.9C13.45 19.68 12 21 12 21z" fill="none" stroke="#ff4a82" stroke-width="2.2" transform="translate(-12 -12)"/></g><g transform="translate(29.23 290.38) rotate(1.8) scale(0.4824)" opacity="0.89"><path d="M12 21s-1.45-1.32-3.6-3.3C5.4 14.6 2 11.5 2 7.8 2 5.1 4.1 3 6.8 3c1.7 0 3.2 .9 4.2 2.3C12 3.9 13.5 3 15.2 3 17.9 3 20 5.1 20 7.8c0 3.7-3.4 6.8-6.4 9.9C13.45 19.68 12 21 12 21z" fill="#ff4a82" transform="translate(-12 -12)"/></g><g transform="translate(13.73 89.76) rotate(12) scale(0.4884)" opacity="0.82"><path d="M12 21s-1.45-1.32-3.6-3.3C5.4 14.6 2 11.5 2 7.8 2 5.1 4.1 3 6.8 3c1.7 0 3.2 .9 4.2 2.3C12 3.9 13.5 3 15.2 3 17.9 3 20 5.1 20 7.8c0 3.7-3.4 6.8-6.4 9.9C13.45 19.68 12 21 12 21z" fill="#ff4a82" transform="translate(-12 -12)"/></g><g transform="translate(88.89 297.59) rotate(18) scale(0.4244)" opacity="0.94"><path d="M12 21s-1.45-1.32-3.6-3.3C5.4 14.6 2 11.5 2 7.8 2 5.1 4.1 3 6.8 3c1.7 0 3.2 .9 4.2 2.3C12 3.9 13.5 3 15.2 3 17.9 3 20 5.1 20 7.8c0 3.7-3.4 6.8-6.4 9.9C13.45 19.68 12 21 12 21z" fill="#ff82aa" transform="translate(-12 -12)"/></g><g transform="translate(125.19 5.41) rotate(17.6) scale(0.4648)" opacity="0.92"><path d="M12 21s-1.45-1.32-3.6-3.3C5.4 14.6 2 11.5 2 7.8 2 5.1 4.1 3 6.8 3c1.7 0 3.2 .9 4.2 2.3C12 3.9 13.5 3 15.2 3 17.9 3 20 5.1 20 7.8c0 3.7-3.4 6.8-6.4 9.9C13.45 19.68 12 21 12 21z" fill="none" stroke="#ff6696" stroke-width="2.2" transform="translate(-12 -12)"/></g><g transform="translate(191.32 166.46) rotate(4.6) scale(0.3754)" opacity="0.87"><path d="M12 21s-1.45-1.32-3.6-3.3C5.4 14.6 2 11.5 2 7.8 2 5.1 4.1 3 6.8 3c1.7 0 3.2 .9 4.2 2.3C12 3.9 13.5 3 15.2 3 17.9 3 20 5.1 20 7.8c0 3.7-3.4 6.8-6.4 9.9C13.45 19.68 12 21 12 21z" fill="#ff4a82" transform="translate(-12 -12)"/></g><g transform="translate(21.59 286.31) rotate(1.5) scale(0.5902)" opacity="0.87"><path d="M12 21s-1.45-1.32-3.6-3.3C5.4 14.6 2 11.5 2 7.8 2 5.1 4.1 3 6.8 3c1.7 0 3.2 .9 4.2 2.3C12 3.9 13.5 3 15.2 3 17.9 3 20 5.1 20 7.8c0 3.7-3.4 6.8-6.4 9.9C13.45 19.68 12 21 12 21z" fill="#ff6696" transform="translate(-12 -12)"/></g><g transform="translate(5.75 162.01) rotate(4.9) scale(0.5729)" opacity="0.9"><path d="M12 21s-1.45-1.32-3.6-3.3C5.4 14.6 2 11.5 2 7.8 2 5.1 4.1 3 6.8 3c1.7 0 3.2 .9 4.2 2.3C12 3.9 13.5 3 15.2 3 17.9 3 20 5.1 20 7.8c0 3.7-3.4 6.8-6.4 9.9C13.45 19.68 12 21 12 21z" fill="#ff82aa" transform="translate(-12 -12)"/></g><g transform="translate(198.76 201.85) rotate(9) scale(0.5089)" opacity="0.94"><path d="M12 21s-1.45-1.32-3.6-3.3C5.4 14.6 2 11.5 2 7.8 2 5.1 4.1 3 6.8 3c1.7 0 3.2 .9 4.2 2.3C12 3.9 13.5 3 15.2 3 17.9 3 20 5.1 20 7.8c0 3.7-3.4 6.8-6.4 9.9C13.45 19.68 12 21 12 21z" fill="none" stroke="#ff82aa" stroke-width="2.2" transform="translate(-12 -12)"/></g><g transform="translate(31.36 14.37) rotate(-12.5) scale(0.4109)" opacity="0.86"><path d="M12 21s-1.45-1.32-3.6-3.3C5.4 14.6 2 11.5 2 7.8 2 5.1 4.1 3 6.8 3c1.7 0 3.2 .9 4.2 2.3C12 3.9 13.5 3 15.2 3 17.9 3 20 5.1 20 7.8c0 3.7-3.4 6.8-6.4 9.9C13.45 19.68 12 21 12 21z" fill="#ff4a82" transform="translate(-12 -12)"/></g><g transform="translate(121.58 253.04) rotate(10) scale(0.4015)" opacity="0.66"><path d="M12 21s-1.45-1.32-3.6-3.3C5.4 14.6 2 11.5 2 7.8 2 5.1 4.1 3 6.8 3c1.7 0 3.2 .9 4.2 2.3C12 3.9 13.5 3 15.2 3 17.9 3 20 5.1 20 7.8c0 3.7-3.4 6.8-6.4 9.9C13.45 19.68 12 21 12 21z" fill="#ff6696" transform="translate(-12 -12)"/></g><g transform="translate(143.14 2.25) rotate(-21.5) scale(0.6094)" opacity="0.94"><path d="M12 21s-1.45-1.32-3.6-3.3C5.4 14.6 2 11.5 2 7.8 2 5.1 4.1 3 6.8 3c1.7 0 3.2 .9 4.2 2.3C12 3.9 13.5 3 15.2 3 17.9 3 20 5.1 20 7.8c0 3.7-3.4 6.8-6.4 9.9C13.45 19.68 12 21 12 21z" fill="#ff4a82" transform="translate(-12 -12)"/></g><g transform="translate(17.13 253.35) rotate(4.8) scale(0.4523)" opacity="0.79"><path d="M12 21s-1.45-1.32-3.6-3.3C5.4 14.6 2 11.5 2 7.8 2 5.1 4.1 3 6.8 3c1.7 0 3.2 .9 4.2 2.3C12 3.9 13.5 3 15.2 3 17.9 3 20 5.1 20 7.8c0 3.7-3.4 6.8-6.4 9.9C13.45 19.68 12 21 12 21z" fill="none" stroke="#ff4a82" stroke-width="2.2" transform="translate(-12 -12)"/></g><g transform="translate(15.27 186.09) rotate(15.7) scale(0.4826)" opacity="0.81"><path d="M12 21s-1.45-1.32-3.6-3.3C5.4 14.6 2 11.5 2 7.8 2 5.1 4.1 3 6.8 3c1.7 0 3.2 .9 4.2 2.3C12 3.9 13.5 3 15.2 3 17.9 3 20 5.1 20 7.8c0 3.7-3.4 6.8-6.4 9.9C13.45 19.68 12 21 12 21z" fill="#ff82aa" transform="translate(-12 -12)"/></g><g transform="translate(13.09 227.17) rotate(-14.9) scale(0.4685)" opacity="0.83"><path d="M12 21s-1.45-1.32-3.6-3.3C5.4 14.6 2 11.5 2 7.8 2 5.1 4.1 3 6.8 3c1.7 0 3.2 .9 4.2 2.3C12 3.9 13.5 3 15.2 3 17.9 3 20 5.1 20 7.8c0 3.7-3.4 6.8-6.4 9.9C13.45 19.68 12 21 12 21z" fill="#ff82aa" transform="translate(-12 -12)"/></g><g transform="translate(72.42 30.49) rotate(-13.4) scale(0.3721)" opacity="0.76"><path d="M12 21s-1.45-1.32-3.6-3.3C5.4 14.6 2 11.5 2 7.8 2 5.1 4.1 3 6.8 3c1.7 0 3.2 .9 4.2 2.3C12 3.9 13.5 3 15.2 3 17.9 3 20 5.1 20 7.8c0 3.7-3.4 6.8-6.4 9.9C13.45 19.68 12 21 12 21z" fill="#ff6696" transform="translate(-12 -12)"/></g><g transform="translate(95.82 5.39) rotate(18.1) scale(0.6066)" opacity="0.92"><path d="M12 21s-1.45-1.32-3.6-3.3C5.4 14.6 2 11.5 2 7.8 2 5.1 4.1 3 6.8 3c1.7 0 3.2 .9 4.2 2.3C12 3.9 13.5 3 15.2 3 17.9 3 20 5.1 20 7.8c0 3.7-3.4 6.8-6.4 9.9C13.45 19.68 12 21 12 21z" fill="none" stroke="#ff6696" stroke-width="2.2" transform="translate(-12 -12)"/></g><g transform="translate(148.36 24.78) rotate(-13.2) scale(0.4847)" opacity="0.8"><path d="M12 21s-1.45-1.32-3.6-3.3C5.4 14.6 2 11.5 2 7.8 2 5.1 4.1 3 6.8 3c1.7 0 3.2 .9 4.2 2.3C12 3.9 13.5 3 15.2 3 17.9 3 20 5.1 20 7.8c0 3.7-3.4 6.8-6.4 9.9C13.45 19.68 12 21 12 21z" fill="#ff82aa" transform="translate(-12 -12)"/></g><g transform="translate(170.78 148.11) rotate(15) scale(0.4)" opacity="0.68"><path d="M12 21s-1.45-1.32-3.6-3.3C5.4 14.6 2 11.5 2 7.8 2 5.1 4.1 3 6.8 3c1.7 0 3.2 .9 4.2 2.3C12 3.9 13.5 3 15.2 3 17.9 3 20 5.1 20 7.8c0 3.7-3.4 6.8-6.4 9.9C13.45 19.68 12 21 12 21z" fill="#ff82aa" transform="translate(-12 -12)"/></g><g transform="translate(76.21 12.98) rotate(18.9) scale(0.4767)" opacity="0.87"><path d="M12 21s-1.45-1.32-3.6-3.3C5.4 14.6 2 11.5 2 7.8 2 5.1 4.1 3 6.8 3c1.7 0 3.2 .9 4.2 2.3C12 3.9 13.5 3 15.2 3 17.9 3 20 5.1 20 7.8c0 3.7-3.4 6.8-6.4 9.9C13.45 19.68 12 21 12 21z" fill="#ff4a82" transform="translate(-12 -12)"/></g><g transform="translate(167.24 295.63) rotate(6.8) scale(0.5762)" opacity="0.92"><path d="M12 21s-1.45-1.32-3.6-3.3C5.4 14.6 2 11.5 2 7.8 2 5.1 4.1 3 6.8 3c1.7 0 3.2 .9 4.2 2.3C12 3.9 13.5 3 15.2 3 17.9 3 20 5.1 20 7.8c0 3.7-3.4 6.8-6.4 9.9C13.45 19.68 12 21 12 21z" fill="none" stroke="#ff4a82" stroke-width="2.2" transform="translate(-12 -12)"/></g><g transform="translate(38.26 30.95) rotate(-18.9) scale(0.329)" opacity="0.76"><path d="M12 21s-1.45-1.32-3.6-3.3C5.4 14.6 2 11.5 2 7.8 2 5.1 4.1 3 6.8 3c1.7 0 3.2 .9 4.2 2.3C12 3.9 13.5 3 15.2 3 17.9 3 20 5.1 20 7.8c0 3.7-3.4 6.8-6.4 9.9C13.45 19.68 12 21 12 21z" fill="#ff82aa" transform="translate(-12 -12)"/></g><g transform="translate(64.43 26.54) rotate(22.2) scale(0.466)" opacity="0.79"><path d="M12 21s-1.45-1.32-3.6-3.3C5.4 14.6 2 11.5 2 7.8 2 5.1 4.1 3 6.8 3c1.7 0 3.2 .9 4.2 2.3C12 3.9 13.5 3 15.2 3 17.9 3 20 5.1 20 7.8c0 3.7-3.4 6.8-6.4 9.9C13.45 19.68 12 21 12 21z" fill="#ff82aa" transform="translate(-12 -12)"/></g><g transform="translate(185.71 93.37) rotate(3.6) scale(0.3613)" opacity="0.82"><path d="M12 21s-1.45-1.32-3.6-3.3C5.4 14.6 2 11.5 2 7.8 2 5.1 4.1 3 6.8 3c1.7 0 3.2 .9 4.2 2.3C12 3.9 13.5 3 15.2 3 17.9 3 20 5.1 20 7.8c0 3.7-3.4 6.8-6.4 9.9C13.45 19.68 12 21 12 21z" fill="#ff82aa" transform="translate(-12 -12)"/></g><g transform="translate(1.23 255.47) rotate(15.8) scale(0.505)" opacity="0.94"><path d="M12 21s-1.45-1.32-3.6-3.3C5.4 14.6 2 11.5 2 7.8 2 5.1 4.1 3 6.8 3c1.7 0 3.2 .9 4.2 2.3C12 3.9 13.5 3 15.2 3 17.9 3 20 5.1 20 7.8c0 3.7-3.4 6.8-6.4 9.9C13.45 19.68 12 21 12 21z" fill="none" stroke="#ff6696" stroke-width="2.2" transform="translate(-12 -12)"/></g><g transform="translate(21.93 277.13) rotate(-10.7) scale(0.4464)" opacity="0.81"><path d="M12 21s-1.45-1.32-3.6-3.3C5.4 14.6 2 11.5 2 7.8 2 5.1 4.1 3 6.8 3c1.7 0 3.2 .9 4.2 2.3C12 3.9 13.5 3 15.2 3 17.9 3 20 5.1 20 7.8c0 3.7-3.4 6.8-6.4 9.9C13.45 19.68 12 21 12 21z" fill="#ff4a82" transform="translate(-12 -12)"/></g><g transform="translate(0.45 164.34) rotate(19.6) scale(0.5276)" opacity="0.95"><path d="M12 21s-1.45-1.32-3.6-3.3C5.4 14.6 2 11.5 2 7.8 2 5.1 4.1 3 6.8 3c1.7 0 3.2 .9 4.2 2.3C12 3.9 13.5 3 15.2 3 17.9 3 20 5.1 20 7.8c0 3.7-3.4 6.8-6.4 9.9C13.45 19.68 12 21 12 21z" fill="#ff4a82" transform="translate(-12 -12)"/></g><g transform="translate(151.43 287.68) rotate(19.2) scale(0.4303)" opacity="0.87"><path d="M12 21s-1.45-1.32-3.6-3.3C5.4 14.6 2 11.5 2 7.8 2 5.1 4.1 3 6.8 3c1.7 0 3.2 .9 4.2 2.3C12 3.9 13.5 3 15.2 3 17.9 3 20 5.1 20 7.8c0 3.7-3.4 6.8-6.4 9.9C13.45 19.68 12 21 12 21z" fill="#ff4a82" transform="translate(-12 -12)"/></g></g></svg>
