<svg xmlns="http://www.w3.org/2000/svg" viewBox="0 0 200 300" preserveAspectRatio="none"><defs><radialGradient id="rim" cx="0.5" cy="0.5" r="0.6"><stop offset="0.5" stop-color="#ff5a85" stop-opacity="0"/><stop offset="0.8" stop-color="#ff4a82" stop-opacity="0.08"/><stop offset="1" stop-color="#ff4a82" stop-opacity="0.22"/></radialGradient><filter id="g" x="-20%" y="-20%" width="140%" height="140%"><feDropShadow dx="0" dy="0" stdDeviation="1.6" flood-color="#ff4a82" flood-opacity="0.5"/></filter></defs><rect width="200" height="300" fill="url(#rim)"/><g filter="url(#g)"><g transform="translate(181.77 294.83) rotate(17.4) scale(0.6328)" opacity="0.92"><path d="M12 21s-1.45-1.32-3.6-3.3C5.4 14.6 2 11.5 2 7.8 2 5.1 4.1 3 6.8 3c1.7 0 3.2 .9 4.2 2.3C12 3.9 13.5 3 15.2 3 17.9 3 20 5.1 20 7.8c0 3.7-3.4 6.8-6.4 9.9C13.45 19.68 12 21 12 21z" fill="none" stroke="#ff6696" stroke-width="2.2" transform="translate(-12 -12)"/></g><g transform="translate(192.02 103.66) rotate(16.1) scale(0.4488)" opacity="0.88"><path d="M12 21s-1.45-1.32-3.6-3.3C5.4 14.6 2 11.5 2 7.8 2 5.1 4.1 3 6.8 3c1.7 0 3.2 .9 4.2 2.3C12 3.9 13.5 3 15.2 3 17.9 3 20 5.1 20 7.8c0 3.7-3.4 6.8-6.4 9.9C13.45 19.68 12 21 12 21z" fill="#ff4a82" transform="translate(-12 -12)"/></g><g transform="translate(2.03 140.03) rotate(-19.3) scale(0.5882)" opacity="0.93"><path d="M12 21s-1.45-1.32-3.6-3.3C5.4 14.6 2 11.5 2 7.8 2 5.1 4.1 3 6.8 3c1.7 0 3.2 .9 4.2 2.3C12 3.9 13.5 3 15.2 3 17.9 3 20 5.1 20 7.8c0 3.7-3.4 6.8-6.4 9.9C13.45 19.68 12 21 12 21z" fill="#ff82aa" transform="translate(-12 -12)"/></g><g transform="translate(33.96 229.6) rotate(-14.7) scale(0.2708)" opacity="0.64"><path d="M12 21s-1.45-1.32-3.6-3.3C5.4 14.6 2 11.5 2 7.8 2 5.1 4.1 3 6.8 3c1.7 0 3.2 .9 4.2 2.3C12 3.9 13.5 3 15.2 3 17.9 3 20 5.1 20 7.8c0 3.7-3.4 6.8-6.4 9.9C13.45 19.68 12 21 12 21z" fill="#ff82aa" transform="translate(-12 -12)"/></g><g transform="translate(10.95 133.3) rotate(-12.6) scale(0.5087)" opacity="0.85"><path d="M12 21s-1.45-1.32-3.6-3.3C5.4 14.6 2 11.5 2 7.8 2 5.1 4.1 3 6.8 3c1.7 0 3.2 .9 4.2 2.3C12 3.9 13.5 3 15.2 3 17.9 3 20 5.1 20 7.8c0 3.7-3.4 6.8-6.4 9.9C13.45 19.68 12 21 12 21z" fill="none" stroke="#ff4a82" stroke-width="2.2" transform="translate(-12 -12)"/></g><g transform="translate(87.14 268.35) rotate(-0.7) scale(0.432)" opacity="0.76"><path d="M12 21s-1.45-1.32-3.6-3.3C5.4 14.6 2 11.5 2 7.8 2 5.1 4.1 3 6.8 3c1.7 0 3.2 .9 4.2 2.3C12 3.9 13.5 3 15.2 3 17.9 3 20 5.1 20 7.8c0 3.7-3.4 6.8-6.4 9.9C13.45 19.68 12 21 12 21z" fill="#ff6696" transform="translate(-12 -12)"/></g><g transform="translate(194.96 239.11) rotate(2) scale(0.614)" opacity="0.9"><path d="M12 21s-1.45-1.32-3.6-3.3C5.4 14.6 2 11.5 2 7.8 2 5.1 4.1 3 6.8 3c1.7 0 3.2 .9 4.2 2.3C12 3.9 13.5 3 15.2 3 17.9 3 20 5.1 20 7.8c0 3.7-3.4 6.8-6.4 9.9C13.45 19.68 12 21 12 21z" fill="#ff6696" transform="translate(-12 -12)"/></g><g transform="translate(19.6 148.07) rotate(-2.3) scale(0.3355)" opacity="0.77"><path d="M12 21s-1.45-1.32-3.6-3.3C5.4 14.6 2 11.5 2 7.8 2 5.1 4.1 3 6.8 3c1.7 0 3.2 .9 4.2 2.3C12 3.9 13.5 3 15.2 3 17.9 3 20 5.1 20 7.8c0 3.7-3.4 6.8-6.4 9.9C13.45 19.68 12 21 12 21z" fill="#ff6696" transform="translate(-12 -12)"/></g><g transform="translate(51.76 0.42) rotate(-1.6) scale(0.5039)" opacity="0.95"><path d="M12 21s-1.45-1.32-3.6-3.3C5.4 14.6 2 11.5 2 7.8 2 5.1 4.1 3 6.8 3c1.7 0 3.2 .9 4.2 2.3C12 3.9 13.5 3 15.2 3 17.9 3 20 5.1 20 7.8c0 3.7-3.4 6.8-6.4 9.9C13.45 19.68 12 21 12 21z" fill="none" stroke="#ff6696" stroke-width="2.2" transform="translate(-12 -12)"/></g><g transform="translate(6.19 120.42) rotate(14.5) scale(0.613)" opacity="0.89"><path d="M12 21s-1.45-1.32-3.6-3.3C5.4 14.6 2 11.5 2 7.8 2 5.1 4.1 3 6.8 3c1.7 0 3.2 .9 4.2 2.3C12 3.9 13.5 3 15.2 3 17.9 3 20 5.1 20 7.8c0 3.7-3.4 6.8-6.4 9.9C13.45 19.68 12 21 12 21z" fill="#ff4a82" transform="translate(-12 -12)"/></g><g transform="translate(19.02 16.79) rotate(-12) scale(0.3639)" opacity="0.85"><path d="M12 21s-1.45-1.32-3.6-3.3C5.4 14.6 2 11.5 2 7.8 2 5.1 4.1 3 6.8 3c1.7 0 3.2 .9 4.2 2.3C12 3.9 13.5 3 15.2 3 17.9 3 20 5.1 20 7.8c0 3.7-3.4 6.8-6.4 9.9C13.45 19.68 12 21 12 21z" fill="#ff4a82" transform="translate(-12 -12)"/></g><g transform="translate(192.63 285.1) rotate(14.7) scale(0.523)" opacity="0.88"><path d="M12 21s-1.45-1.32-3.6-3.3C5.4 14.6 2 11.5 2 7.8 2 5.1 4.1 3 6.8 3c1.7 0 3.2 .9 4.2 2.3C12 3.9 13.5 3 15.2 3 17.9 3 20 5.1 20 7.8c0 3.7-3.4 6.8-6.4 9.9C13.45 19.68 12 21 12 21z" fill="#ff4a82" transform="translate(-12 -12)"/></g><g transform="translate(70.77 34.7) rotate(6.6) scale(0.4439)" opacity="0.74"><path d="M12 21s-1.45-1.32-3.6-3.3C5.4 14.6 2 11.5 2 7.8 2 5.1 4.1 3 6.8 3c1.7 0 3.2 .9 4.2 2.3C12 3.9 13.5 3 15.2 3 17.9 3 20 5.1 20 7.8c0 3.7-3.4 6.8-6.4 9.9C13.45 19.68 12 21 12 21z" fill="none" stroke="#ff4a82" stroke-width="2.2" transform="translate(-12 -12)"/></g><g transform="translate(196.05 220.22) rotate(-8.6) scale(0.4324)" opacity="0.91"><path d="M12 21s-1.45-1.32-3.6-3.3C5.4 14.6 2 11.5 2 7.8 2 5.1 4.1 3 6.8 3c1.7 0 3.2 .9 4.2 2.3C12 3.9 13.5 3 15.2 3 17.9 3 20 5.1 20 7.8c0 3.7-3.4 6.8-6.4 9.9C13.45 19.68 12 21 12 21z" fill="#ff82aa" transform="translate(-12 -12)"/></g><g transform="translate(114.24 295.04) rotate(-0.2) scale(0.5461)" opacity="0.92"><path d="M12 21s-1.45-1.32-3.6-3.3C5.4 14.6 2 11.5 2 7.8 2 5.1 4.1 3 6.8 3c1.7 0 3.2 .9 4.2 2.3C12 3.9 13.5 3 15.2 3 17.9 3 20 5.1 20 7.8c0 3.7-3.4 6.8-6.4 9.9C13.45 19.68 12 21 12 21z" fill="#ff6696" transform="translate(-12 -12)"/></g><g transform="translate(38.6 188.77) rotate(-12.5) scale(0.3023)" opacity="0.6"><path d="M12 21s-1.45-1.32-3.6-3.3C5.4 14.6 2 11.5 2 7.8 2 5.1 4.1 3 6.8 3c1.7 0 3.2 .9 4.2 2.3C12 3.9 13.5 3 15.2 3 17.9 3 20 5.1 20 7.8c0 3.7-3.4 6.8-6.4 9.9C13.45 19.68 12 21 12 21z" fill="#ff82aa" transform="translate(-12 -12)"/></g><g transform="translate(167.35 273.12) rotate(22.1) scale(0.3648)" opacity="0.79"><path d="M12 21s-1.45-1.32-3.6-3.3C5.4 14.6 2 11.5 2 7.8 2 5.1 4.1 3 6.8 3c1.7 0 3.2 .9 4.2 2.3C12 3.9 13.5 3 15.2 3 17.9 3 20 5.1 20 7.8c0 3.7-3.4 6.8-6.4 9.9C13.45 19.68 12 21 12 21z" fill="none" stroke="#ff6696" stroke-width="2.2" transform="translate(-12 -12)"/></g><g transform="translate(195.05 126.33) rotate(5.4) scale(0.5259)" opacity="0.9"><path d="M12 21s-1.45-1.32-3.6-3.3C5.4 14.6 2 11.5 2 7.8 2 5.1 4.1 3 6.8 3c1.7 0 3.2 .9 4.2 2.3C12 3.9 13.5 3 15.2 3 17.9 3 20 5.1 20 7.8c0 3.7-3.4 6.8-6.4 9.9C13.45 19.68 12 21 12 21z" fill="#ff4a82" transform="translate(-12 -12)"/></g><g transform="translate(110.97 62.09) rotate(1) scale(0.2658)" opacity="0.57"><path d="M12 21s-1.45-1.32-3.6-3.3C5.4 14.6 2 11.5 2 7.8 2 5.1 4.1 3 6.8 3c1.7 0 3.2 .9 4.2 2.3C12 3.9 13.5 3 15.2 3 17.9 3 20 5.1 20 7.8c0 3.7-3.4 6.8-6.4 9.9C13.45 19.68 12 21 12 21z" fill="#ff82aa" transform="translate(-12 -12)"/></g><g transform="translate(25.36 104.98) rotate(21.5) scale(0.4621)" opacity="0.72"><path d="M12 21s-1.45-1.32-3.6-3.3C5.4 14.6 2 11.5 2 7.8 2 5.1 4.1 3 6.8 3c1.7 0 3.2 .9 4.2 2.3C12 3.9 13.5 3 15.2 3 17.9 3 20 5.1 20 7.8c0 3.7-3.4 6.8-6.4 9.9C13.45 19.68 12 21 12 21z" fill="#ff6696" transform="translate(-12 -12)"/></g><g transform="translate(25.72 289.88) rotate(-9.5) scale(0.5801)" opacity="0.89"><path d="M12 21s-1.45-1.32-3.6-3.3C5.4 14.6 2 11.5 2 7.8 2 5.1 4.1 3 6.8 3c1.7 0 3.2 .9 4.2 2.3C12 3.9 13.5 3 15.2 3 17.9 3 20 5.1 20 7.8c0 3.7-3.4 6.8-6.4 9.9C13.45 19.68 12 21 12 21z" fill="none" stroke="#ff6696" stroke-width="2.2" transform="translate(-12 -12)"/></g><g transform="translate(125.75 295.92) rotate(-14.3) scale(0.4958)" opacity="0.93"><path d="M12 21s-1.45-1.32-3.6-3.3C5.4 14.6 2 11.5 2 7.8 2 5.1 4.1 3 6.8 3c1.7 0 3.2 .9 4.2 2.3C12 3.9 13.5 3 15.2 3 17.9 3 20 5.1 20 7.8c0 3.7-3.4 6.8-6.4 9.9C13.45 19.68 12 21 12 21z" fill="#ff6696" transform="translate(-12 -12)"/></g><g transform="translate(167.29 0.04) rotate(4.8) scale(0.5537)" opacity="0.95"><path d="M12 21s-1.45-1.32-3.6-3.3C5.4 14.6 2 11.5 2 7.8 2 5.1 4.1 3 6.8 3c1.7 0 3.2 .9 4.2 2.3C12 3.9 13.5 3 15.2 3 17.9 3 20 5.1 20 7.8c0 3.7-3.4 6.8-6.4 9.9C13.45 19.68 12 21 12 21z" fill="#ff6696" transform="translate(-12 -12)"/></g><g transform="translate(93.81 279.08) rotate(-2.3) scale(0.4992)" opacity="0.82"><path d="M12 21s-1.45-1.32-3.6-3.3C5.4 14.6 2 11.5 2 7.8 2 5.1 4.1 3 6.8 3c1.7 0 3.2 .9 4.2 2.3C12 3.9 13.5 3 15.2 3 17.9 3 20 5.1 20 7.8c0 3.7-3.4 6.8-6.4 9.9C13.45 19.68 12 21 12 21z" fill="#ff82aa" transform="translate(-12 -12)"/></g><g transform="translate(178.24 5.95) rotate(-4.2) scale(0.568)" opacity="0.91"><path d="M12 21s-1.45-1.32-3.6-3.3C5.4 14.6 2 11.5 2 7.8 2 5.1 4.1 3 6.8 3c1.7 0 3.2 .9 4.2 2.3C12 3.9 13.5 3 15.2 3 17.9 3 20 5.1 20 7.8c0 3.7-3.4 6.8-6.4 9.9C13.45 19.68 12 21 12 21z" fill="none" stroke="#ff6696" stroke-width="2.2" transform="translate(-12 -12)"/></g><g transform="translate(57.05 44.96) rotate(-3.8) scale(0.3215)" opacity="0.68"><path d="M12 21s-1.45-1.32-3.6-3.3C5.4 14.6 2 11.5 2 7.8 2 5.1 4.1 3 6.8 3c1.7 0 3.2 .9 4.2 2.3C12 3.9 13.5 3 15.2 3 17.9 3 20 5.1 20 7.8c0 3.7-3.4 6.8-6.4 9.9C13.45 19.68 12 21 12 21z" fill="#ff6696" transform="translate(-12 -12)"/></g><g transform="translate(171.99 281.87) rotate(-10.5) scale(0.4774)" opacity="0.84"><path d="M12 21s-1.45-1.32-3.6-3.3C5.4 14.6 2 11.5 2 7.8 2 5.1 4.1 3 6.8 3c1.7 0 3.2 .9 4.2 2.3C12 3.9 13.5 3 15.2 3 17.9 3 20 5.1 20 7.8c0 3.7-3.4 6.8-6.4 9.9C13.45 19.68 12 21 12 21z" fill="#ff4a82" transform="translate(-12 -12)"/></g><g transform="translate(191.27 170.93) rotate(4) scale(0.4078)" opacity="0.87"><path d="M12 21s-1.45-1.32-3.6-3.3C5.4 14.6 2 11.5 2 7.8 2 5.1 4.1 3 6.8 3c1.7 0 3.2 .9 4.2 2.3C12 3.9 13.5 3 15.2 3 17.9 3 20 5.1 20 7.8c0 3.7-3.4 6.8-6.4 9.9C13.45 19.68 12 21 12 21z" fill="#ff82aa" transform="translate(-12 -12)"/></g><g transform="translate(116.52 26.39) rotate(-5.3) scale(0.5016)" opacity="0.79"><path d="M12 21s-1.45-1.32-3.6-3.3C5.4 14.6 2 11.5 2 7.8 2 5.1 4.1 3 6.8 3c1.7 0 3.2 .9 4.2 2.3C12 3.9 13.5 3 15.2 3 17.9 3 20 5.1 20 7.8c0 3.7-3.4 6.8-6.4 9.9C13.45 19.68 12 21 12 21z" fill="none" stroke="#ff4a82" stroke-width="2.2" transform="translate(-12 -12)"/></g><g transform="translate(97 298.2) rotate(13.2) scale(0.6561)" opacity="0.94"><path d="M12 21s-1.45-1.32-3.6-3.3C5.4 14.6 2 11.5 2 7.8 2 5.1 4.1 3 6.8 3c1.7 0 3.2 .9 4.2 2.3C12 3.9 13.5 3 15.2 3 17.9 3 20 5.1 20 7.8c0 3.7-3.4 6.8-6.4 9.9C13.45 19.68 12 21 12 21z" fill="#ff6696" transform="translate(-12 -12)"/></g><g transform="translate(193.83 180.47) rotate(-8.6) scale(0.4884)" opacity="0.89"><path d="M12 21s-1.45-1.32-3.6-3.3C5.4 14.6 2 11.5 2 7.8 2 5.1 4.1 3 6.8 3c1.7 0 3.2 .9 4.2 2.3C12 3.9 13.5 3 15.2 3 17.9 3 20 5.1 20 7.8c0 3.7-3.4 6.8-6.4 9.9C13.45 19.68 12 21 12 21z" fill="#ff6696" transform="translate(-12 -12)"/></g><g transform="translate(73.98 24.39) rotate(21.6) scale(0.4767)" opacity="0.8"><path d="M12 21s-1.45-1.32-3.6-3.3C5.4 14.6 2 11.5 2 7.8 2 5.1 4.1 3 6.8 3c1.7 0 3.2 .9 4.2 2.3C12 3.9 13.5 3 15.2 3 17.9 3 20 5.1 20 7.8c0 3.7-3.4 6.8-6.4 9.9C13.45 19.68 12 21 12 21z" fill="#ff6696" transform="translate(-12 -12)"/></g><g transform="translate(10.54 292.25) rotate(-3.3) scale(0.5187)" opacity="0.9"><path d="M12 21s-1.45-1.32-3.6-3.3C5.4 14.6 2 11.5 2 7.8 2 5.1 4.1 3 6.8 3c1.7 0 3.2 .9 4.2 2.3C12 3.9 13.5 3 15.2 3 17.9 3 20 5.1 20 7.8c0 3.7-3.4 6.8-6.4 9.9C13.45 19.68 12 21 12 21z" fill="none" stroke="#ff6696" stroke-width="2.2" transform="translate(-12 -12)"/></g><g transform="translate(48 298.03) rotate(21.2) scale(0.4166)" opacity="0.94"><path d="M12 21s-1.45-1.32-3.6-3.3C5.4 14.6 2 11.5 2 7.8 2 5.1 4.1 3 6.8 3c1.7 0 3.2 .9 4.2 2.3C12 3.9 13.5 3 15.2 3 17.9 3 20 5.1 20 7.8c0 3.7-3.4 6.8-6.4 9.9C13.45 19.68 12 21 12 21z" fill="#ff82aa" transform="translate(-12 -12)"/></g><g transform="translate(20.7 227.07) rotate(-9.7) scale(0.4196)" opacity="0.76"><path d="M12 21s-1.45-1.32-3.6-3.3C5.4 14.6 2 11.5 2 7.8 2 5.1 4.1 3 6.8 3c1.7 0 3.2 .9 4.2 2.3C12 3.9 13.5 3 15.2 3 17.9 3 20 5.1 20 7.8c0 3.7-3.4 6.8-6.4 9.9C13.45 19.68 12 21 12 21z" fill="#ff4a82" transform="translate(-12 -12)"/></g><g transform="translate(175.25 51.56) rotate(5.9) scale(0.4747)" opacity="0.72"><path d="M12 21s-1.45-1.32-3.6-3.3C5.4 14.6 2 11.5 2 7.8 2 5.1 4.1 3 6.8 3c1.7 0 3.2 .9 4.2 2.3C12 3.9 13.5 3 15.2 3 17.9 3 20 5.1 20 7.8c0 3.7-3.4 6.8-6.4 9.9C13.45 19.68 12 21 12 21z" fill="#ff6696" transform="translate(-12 -12)"/></g></g></svg>
