<svg xmlns="http://www.w3.org/2000/svg" viewBox="0 0 200 300" preserveAspectRatio="none"><defs><radialGradient id="rim" cx="0.5" cy="0.5" r="0.6"><stop offset="0.5" stop-color="#ff5a85" stop-opacity="0"/><stop offset="0.8" stop-color="#ff4a82" stop-opacity="0.08"/><stop offset="1" stop-color="#ff4a82" stop-opacity="0.22"/></radialGradient><filter id="g" x="-20%" y="-20%" width="140%" height="140%"><feDropShadow dx="0" dy="0" stdDeviation="1.6" flood-color="#ff4a82" flood-opacity="0.5"/></filter></defs><rect width="200" height="300" fill="url(#rim)"/><g filter="url(#g)"><g transform="translate(175.61 58.25) rotate(7) scale(0.4895)" opacity="0.73"><path d="M12 21s-1.45-1.32-3.6-3.3C5.4 14.6 2 11.5 2 7.8 2 5.1 4.1 3 6.8 3c1.7 0 3.2 .9 4.2 2.3C12 3.9 13.5 3 15.2 3 17.9 3 20 5.1 20 7.8c0 3.7-3.4 6.8-6.4 9.9C13.45 19.68 12 21 12 21z" fill="none" stroke="#ff4a82" stroke-width="2.2" transform="translate(-12 -12)"/></g><g transform="translate(185.45 136.5) rotate(-11.6) scale(0.3795)" opacity="0.82"><path d="M12 21s-1.45-1.32-3.6-3.3C5.4 14.6 2 11.5 2 7.8 2 5.1 4.1 3 6.8 3c1.7 0 3.2 .9 4.2 2.3C12 3.9 13.5 3 15.2 3 17.9 3 20 5.1 20 7.8c0 3.7-3.4 6.8-6.4 9.9C13.45 19.68 12 21 12 21z" fill="#ff82aa" transform="translate(-12 -12)"/></g><g transform="translate(4.75 251.11) rotate(-17.1) scale(0.4141)" opacity="0.91"><path d="M12 21s-1.45-1.32-3.6-3.3C5.4 14.6 2 11.5 2 7.8 2 5.1 4.1 3 6.8 3c1.7 0 3.2 .9 4.2 2.3C12 3.9 13.5 3 15.2 3 17.9 3 20 5.1 20 7.8c0 3.7-3.4 6.8-6.4 9.9C13.45 19.68 12 21 12 21z" fill="#ff82aa" transform="translate(-12 -12)"/></g><g transform="translate(86.32 288.17) rotate(3.6) scale(0.4918)" opacity="0.88"><path d="M12 21s-1.45-1.32-3.6-3.3C5.4 14.6 2 11.5 2 7.8 2 5.1 4.1 3 6.8 3c1.7 0 3.2 .9 4.2 2.3C12 3.9 13.5 3 15.2 3 17.9 3 20 5.1 20 7.8c0 3.7-3.4 6.8-6.4 9.9C13.45 19.68 12 21 12 21z" fill="#ff82aa" transform="translate(-12 -12)"/></g><g transform="translate(196.24 160.14) rotate(22.5) scale(0.6068)" opacity="0.92"><path d="M12 21s-1.45-1.32-3.6-3.3C5.4 14.6 2 11.5 2 7.8 2 5.1 4.1 3 6.8 3c1.7 0 3.2 .9 4.2 2.3C12 3.9 13.5 3 15.2 3 17.9 3 20 5.1 20 7.8c0 3.7-3.4 6.8-6.4 9.9C13.45 19.68 12 21 12 21z" fill="none" stroke="#ff4a82" stroke-width="2.2" transform="translate(-12 -12)"/></g><g transform="translate(70.69 1.44) rotate(18.1) scale(0.4201)" opacity="0.94"><path d="M12 21s-1.45-1.32-3.6-3.3C5.4 14.6 2 11.5 2 7.8 2 5.1 4.1 3 6.8 3c1.7 0 3.2 .9 4.2 2.3C12 3.9 13.5 3 15.2 3 17.9 3 20 5.1 20 7.8c0 3.7-3.4 6.8-6.4 9.9C13.45 19.68 12 21 12 21z" fill="#ff6696" transform="translate(-12 -12)"/></g><g transform="translate(49.88 288.76) rotate(3.8) scale(0.575)" opacity="0.88"><path d="M12 21s-1.45-1.32-3.6-3.3C5.4 14.6 2 11.5 2 7.8 2 5.1 4.1 3 6.8 3c1.7 0 3.2 .9 4.2 2.3C12 3.9 13.5 3 15.2 3 17.9 3 20 5.1 20 7.8c0 3.7-3.4 6.8-6.4 9.9C13.45 19.68 12 21 12 21z" fill="#ff82aa" transform="translate(-12 -12)"/></g><g transform="translate(44.09 256.69) rotate(22.7) scale(0.3282)" opacity="0.69"><path d="M12 21s-1.45-1.32-3.6-3.3C5.4 14.6 2 11.5 2 7.8 2 5.1 4.1 3 6.8 3c1.7 0 3.2 .9 4.2 2.3C12 3.9 13.5 3 15.2 3 17.9 3 20 5.1 20 7.8c0 3.7-3.4 6.8-6.4 9.9C13.45 19.68 12 21 12 21z" fill="#ff4a82" transform="translate(-12 -12)"/></g><g transform="translate(15.93 236.14) rotate(-7.2) scale(0.3699)" opacity="0.8"><path d="M12 21s-1.45-1.32-3.6-3.3C5.4 14.6 2 11.5 2 7.8 2 5.1 4.1 3 6.8 3c1.7 0 3.2 .9 4.2 2.3C12 3.9 13.5 3 15.2 3 17.9 3 20 5.1 20 7.8c0 3.7-3.4 6.8-6.4 9.9C13.45 19.68 12 21 12 21z" fill="none" stroke="#ff4a82" stroke-width="2.2" transform="translate(-12 -12)"/></g><g transform="translate(199.38 248.72) rotate(-21) scale(0.4144)" opacity="0.94"><path d="M12 21s-1.45-1.32-3.6-3.3C5.4 14.6 2 11.5 2 7.8 2 5.1 4.1 3 6.8 3c1.7 0 3.2 .9 4.2 2.3C12 3.9 13.5 3 15.2 3 17.9 3 20 5.1 20 7.8c0 3.7-3.4 6.8-6.4 9.9C13.45 19.68 12 21 12 21z" fill="#ff82aa" transform="translate(-12 -12)"/></g><g transform="translate(12.21 59.16) rotate(-20.1) scale(0.4136)" opacity="0.84"><path d="M12 21s-1.45-1.32-3.6-3.3C5.4 14.6 2 11.5 2 7.8 2 5.1 4.1 3 6.8 3c1.7 0 3.2 .9 4.2 2.3C12 3.9 13.5 3 15.2 3 17.9 3 20 5.1 20 7.8c0 3.7-3.4 6.8-6.4 9.9C13.45 19.68 12 21 12 21z" fill="#ff82aa" transform="translate(-12 -12)"/></g><g transform="translate(119.99 236.13) rotate(-14.2) scale(0.2606)" opacity="0.56"><path d="M12 21s-1.45-1.32-3.6-3.3C5.4 14.6 2 11.5 2 7.8 2 5.1 4.1 3 6.8 3c1.7 0 3.2 .9 4.2 2.3C12 3.9 13.5 3 15.2 3 17.9 3 20 5.1 20 7.8c0 3.7-3.4 6.8-6.4 9.9C13.45 19.68 12 21 12 21z" fill="#ff4a82" transform="translate(-12 -12)"/></g><g transform="translate(36.86 15.43) rotate(0.4) scale(0.4013)" opacity="0.86"><path d="M12 21s-1.45-1.32-3.6-3.3C5.4 14.6 2 11.5 2 7.8 2 5.1 4.1 3 6.8 3c1.7 0 3.2 .9 4.2 2.3C12 3.9 13.5 3 15.2 3 17.9 3 20 5.1 20 7.8c0 3.7-3.4 6.8-6.4 9.9C13.45 19.68 12 21 12 21z" fill="none" stroke="#ff6696" stroke-width="2.2" transform="translate(-12 -12)"/></g><g transform="translate(86.43 254.22) rotate(-21.9) scale(0.3776)" opacity="0.67"><path d="M12 21s-1.45-1.32-3.6-3.3C5.4 14.6 2 11.5 2 7.8 2 5.1 4.1 3 6.8 3c1.7 0 3.2 .9 4.2 2.3C12 3.9 13.5 3 15.2 3 17.9 3 20 5.1 20 7.8c0 3.7-3.4 6.8-6.4 9.9C13.45 19.68 12 21 12 21z" fill="#ff82aa" transform="translate(-12 -12)"/></g><g transform="translate(6.68 216.71) rotate(17) scale(0.4516)" opacity="0.89"><path d="M12 21s-1.45-1.32-3.6-3.3C5.4 14.6 2 11.5 2 7.8 2 5.1 4.1 3 6.8 3c1.7 0 3.2 .9 4.2 2.3C12 3.9 13.5 3 15.2 3 17.9 3 20 5.1 20 7.8c0 3.7-3.4 6.8-6.4 9.9C13.45 19.68 12 21 12 21z" fill="#ff4a82" transform="translate(-12 -12)"/></g><g transform="translate(0.18 65.91) rotate(-15.6) scale(0.4428)" opacity="0.95"><path d="M12 21s-1.45-1.32-3.6-3.3C5.4 14.6 2 11.5 2 7.8 2 5.1 4.1 3 6.8 3c1.7 0 3.2 .9 4.2 2.3C12 3.9 13.5 3 15.2 3 17.9 3 20 5.1 20 7.8c0 3.7-3.4 6.8-6.4 9.9C13.45 19.68 12 21 12 21z" fill="#ff82aa" transform="translate(-12 -12)"/></g><g transform="translate(181.48 211.95) rotate(8.3) scale(0.5121)" opacity="0.78"><path d="M12 21s-1.45-1.32-3.6-3.3C5.4 14.6 2 11.5 2 7.8 2 5.1 4.1 3 6.8 3c1.7 0 3.2 .9 4.2 2.3C12 3.9 13.5 3 15.2 3 17.9 3 20 5.1 20 7.8c0 3.7-3.4 6.8-6.4 9.9C13.45 19.68 12 21 12 21z" fill="none" stroke="#ff4a82" stroke-width="2.2" transform="translate(-12 -12)"/></g><g transform="translate(19.39 272.32) rotate(-17.4) scale(0.417)" opacity="0.78"><path d="M12 21s-1.45-1.32-3.6-3.3C5.4 14.6 2 11.5 2 7.8 2 5.1 4.1 3 6.8 3c1.7 0 3.2 .9 4.2 2.3C12 3.9 13.5 3 15.2 3 17.9 3 20 5.1 20 7.8c0 3.7-3.4 6.8-6.4 9.9C13.45 19.68 12 21 12 21z" fill="#ff4a82" transform="translate(-12 -12)"/></g><g transform="translate(198.55 117.56) rotate(-21.5) scale(0.6538)" opacity="0.94"><path d="M12 21s-1.45-1.32-3.6-3.3C5.4 14.6 2 11.5 2 7.8 2 5.1 4.1 3 6.8 3c1.7 0 3.2 .9 4.2 2.3C12 3.9 13.5 3 15.2 3 17.9 3 20 5.1 20 7.8c0 3.7-3.4 6.8-6.4 9.9C13.45 19.68 12 21 12 21z" fill="#ff4a82" transform="translate(-12 -12)"/></g><g transform="translate(7.38 40.19) rotate(3.3) scale(0.5094)" opacity="0.88"><path d="M12 21s-1.45-1.32-3.6-3.3C5.4 14.6 2 11.5 2 7.8 2 5.1 4.1 3 6.8 3c1.7 0 3.2 .9 4.2 2.3C12 3.9 13.5 3 15.2 3 17.9 3 20 5.1 20 7.8c0 3.7-3.4 6.8-6.4 9.9C13.45 19.68 12 21 12 21z" fill="#ff82aa" transform="translate(-12 -12)"/></g><g transform="translate(46.67 288.3) rotate(-4.2) scale(0.4632)" opacity="0.88"><path d="M12 21s-1.45-1.32-3.6-3.3C5.4 14.6 2 11.5 2 7.8 2 5.1 4.1 3 6.8 3c1.7 0 3.2 .9 4.2 2.3C12 3.9 13.5 3 15.2 3 17.9 3 20 5.1 20 7.8c0 3.7-3.4 6.8-6.4 9.9C13.45 19.68 12 21 12 21z" fill="none" stroke="#ff4a82" stroke-width="2.2" transform="translate(-12 -12)"/></g><g transform="translate(74.73 49.13) rotate(-1.2) scale(0.4043)" opacity="0.65"><path d="M12 21s-1.45-1.32-3.6-3.3C5.4 14.6 2 11.5 2 7.8 2 5.1 4.1 3 6.8 3c1.7 0 3.2 .9 4.2 2.3C12 3.9 13.5 3 15.2 3 17.9 3 20 5.1 20 7.8c0 3.7-3.4 6.8-6.4 9.9C13.45 19.68 12 21 12 21z" fill="#ff4a82" transform="translate(-12 -12)"/></g><g transform="translate(10.58 166.37) rotate(15.8) scale(0.4329)" opacity="0.85"><path d="M12 21s-1.45-1.32-3.6-3.3C5.4 14.6 2 11.5 2 7.8 2 5.1 4.1 3 6.8 3c1.7 0 3.2 .9 4.2 2.3C12 3.9 13.5 3 15.2 3 17.9 3 20 5.1 20 7.8c0 3.7-3.4 6.8-6.4 9.9C13.45 19.68 12 21 12 21z" fill="#ff4a82" transform="translate(-12 -12)"/></g><g transform="translate(185.05 202.61) rotate(-4.8) scale(0.3576)" opacity="0.81"><path d="M12 21s-1.45-1.32-3.6-3.3C5.4 14.6 2 11.5 2 7.8 2 5.1 4.1 3 6.8 3c1.7 0 3.2 .9 4.2 2.3C12 3.9 13.5 3 15.2 3 17.9 3 20 5.1 20 7.8c0 3.7-3.4 6.8-6.4 9.9C13.45 19.68 12 21 12 21z" fill="#ff6696" transform="translate(-12 -12)"/></g><g transform="translate(170.17 246.61) rotate(-16.3) scale(0.4111)" opacity="0.68"><path d="M12 21s-1.45-1.32-3.6-3.3C5.4 14.6 2 11.5 2 7.8 2 5.1 4.1 3 6.8 3c1.7 0 3.2 .9 4.2 2.3C12 3.9 13.5 3 15.2 3 17.9 3 20 5.1 20 7.8c0 3.7-3.4 6.8-6.4 9.9C13.45 19.68 12 21 12 21z" fill="none" stroke="#ff6696" stroke-width="2.2" transform="translate(-12 -12)"/></g><g transform="translate(15.22 14.97) rotate(-17.1) scale(0.5629)" opacity="0.86"><path d="M12 21s-1.45-1.32-3.6-3.3C5.4 14.6 2 11.5 2 7.8 2 5.1 4.1 3 6.8 3c1.7 0 3.2 .9 4.2 2.3C12 3.9 13.5 3 15.2 3 17.9 3 20 5.1 20 7.8c0 3.7-3.4 6.8-6.4 9.9C13.45 19.68 12 21 12 21z" fill="#ff82aa" transform="translate(-12 -12)"/></g><g transform="translate(191.1 191.18) rotate(-13.9) scale(0.469)" opacity="0.87"><path d="M12 21s-1.45-1.32-3.6-3.3C5.4 14.6 2 11.5 2 7.8 2 5.1 4.1 3 6.8 3c1.7 0 3.2 .9 4.2 2.3C12 3.9 13.5 3 15.2 3 17.9 3 20 5.1 20 7.8c0 3.7-3.4 6.8-6.4 9.9C13.45 19.68 12 21 12 21z" fill="#ff82aa" transform="translate(-12 -12)"/></g><g transform="translate(105.11 9) rotate(-6.4) scale(0.5946)" opacity="0.89"><path d="M12 21s-1.45-1.32-3.6-3.3C5.4 14.6 2 11.5 2 7.8 2 5.1 4.1 3 6.8 3c1.7 0 3.2 .9 4.2 2.3C12 3.9 13.5 3 15.2 3 17.9 3 20 5.1 20 7.8c0 3.7-3.4 6.8-6.4 9.9C13.45 19.68 12 21 12 21z" fill="#ff4a82" transform="translate(-12 -12)"/></g><g transform="translate(196.01 244.84) rotate(-18.7) scale(0.4869)" opacity="0.91"><path d="M12 21s-1.45-1.32-3.6-3.3C5.4 14.6 2 11.5 2 7.8 2 5.1 4.1 3 6.8 3c1.7 0 3.2 .9 4.2 2.3C12 3.9 13.5 3 15.2 3 17.9 3 20 5.1 20 7.8c0 3.7-3.4 6.8-6.4 9.9C13.45 19.68 12 21 12 21z" fill="none" stroke="#ff82aa" stroke-width="2.2" transform="translate(-12 -12)"/></g><g transform="translate(76.62 282.05) rotate(8) scale(0.5095)" opacity="0.84"><path d="M12 21s-1.45-1.32-3.6-3.3C5.4 14.6 2 11.5 2 7.8 2 5.1 4.1 3 6.8 3c1.7 0 3.2 .9 4.2 2.3C12 3.9 13.5 3 15.2 3 17.9 3 20 5.1 20 7.8c0 3.7-3.4 6.8-6.4 9.9C13.45 19.68 12 21 12 21z" fill="#ff6696" transform="translate(-12 -12)"/></g><g transform="translate(132.84 10.34) rotate(-22.2) scale(0.5114)" opacity="0.89"><path d="M12 21s-1.45-1.32-3.6-3.3C5.4 14.6 2 11.5 2 7.8 2 5.1 4.1 3 6.8 3c1.7 0 3.2 .9 4.2 2.3C12 3.9 13.5 3 15.2 3 17.9 3 20 5.1 20 7.8c0 3.7-3.4 6.8-6.4 9.9C13.45 19.68 12 21 12 21z" fill="#ff6696" transform="translate(-12 -12)"/></g><g transform="translate(185.53 245.68) rotate(-3.3) scale(0.5404)" opacity="0.82"><path d="M12 21s-1.45-1.32-3.6-3.3C5.4 14.6 2 11.5 2 7.8 2 5.1 4.1 3 6.8 3c1.7 0 3.2 .9 4.2 2.3C12 3.9 13.5 3 15.2 3 17.9 3 20 5.1 20 7.8c0 3.7-3.4 6.8-6.4 9.9C13.45 19.68 12 21 12 21z" fill="#ff6696" transform="translate(-12 -12)"/></g><g transform="translate(197.44 193.18) rotate(-22.8) scale(0.6455)" opacity="0.93"><path d="M12 21s-1.45-1.32-3.6-3.3C5.4 14.6 2 11.5 2 7.8 2 5.1 4.1 3 6.8 3c1.7 0 3.2 .9 4.2 2.3C12 3.9 13.5 3 15.2 3 17.9 3 20 5.1 20 7.8c0 3.7-3.4 6.8-6.4 9.9C13.45 19.68 12 21 12 21z" fill="none" stroke="#ff6696" stroke-width="2.2" transform="translate(-12 -12)"/></g><g transform="translate(70.93 41.57) rotate(11.8) scale(0.4506)" opacity="0.7"><path d="M12 21s-1.45-1.32-3.6-3.3C5.4 14.6 2 11.5 2 7.8 2 5.1 4.1 3 6.8 3c1.7 0 3.2 .9 4.2 2.3C12 3.9 13.5 3 15.2 3 17.9 3 20 5.1 20 7.8c0 3.7-3.4 6.8-6.4 9.9C13.45 19.68 12 21 12 21z" fill="#ff82aa" transform="translate(-12 -12)"/></g><g transform="translate(93.87 297.35) rotate(-1.7) scale(0.5995)" opacity="0.93"><path d="M12 21s-1.45-1.32-3.6-3.3C5.4 14.6 2 11.5 2 7.8 2 5.1 4.1 3 6.8 3c1.7 0 3.2 .9 4.2 2.3C12 3.9 13.5 3 15.2 3 17.9 3 20 5.1 20 7.8c0 3.7-3.4 6.8-6.4 9.9C13.45 19.68 12 21 12 21z" fill="#ff82aa" transform="translate(-12 -12)"/></g><g transform="translate(130.17 297.91) rotate(4) scale(0.5395)" opacity="0.94"><path d="M12 21s-1.45-1.32-3.6-3.3C5.4 14.6 2 11.5 2 7.8 2 5.1 4.1 3 6.8 3c1.7 0 3.2 .9 4.2 2.3C12 3.9 13.5 3 15.2 3 17.9 3 20 5.1 20 7.8c0 3.7-3.4 6.8-6.4 9.9C13.45 19.68 12 21 12 21z" fill="#ff4a82" transform="translate(-12 -12)"/></g></g></svg>
