<svg xmlns="http://www.w3.org/2000/svg" viewBox="0 0 200 300" preserveAspectRatio="none"><defs><radialGradient id="rim" cx="0.5" cy="0.5" r="0.6"><stop offset="0.5" stop-color="#ff5a85" stop-opacity="0"/><stop offset="0.8" stop-color="#ff4a82" stop-opacity="0.08"/><stop offset="1" stop-color="#ff4a82" stop-opacity="0.22"/></radialGradient><filter id="g" x="-20%" y="-20%" width="140%" height="140%"><feDropShadow dx="0" dy="0" stdDeviation="1.6" flood-color="#ff4a82" flood-opacity="0.5"/></filter></defs><rect width="200" height="300" fill="url(#rim)"/><g filter="url(#g)"><g transform="translate(32.04 298.3) rotate(3.1) scale(0.6205)" opacity="0.94"><path d="M12 21s-1.45-1.32-3.6-3.3C5.4 14.6 2 11.5 2 7.8 2 5.1 4.1 3 6.8 3c1.7 0 3.2 .9 4.2 2.3C12 3.9 13.5 3 15.2 3 17.9 3 20 5.1 20 7.8c0 3.7-3.4 6.8-6.4 9.9C13.45 19.68 12 21 12 21z" fill="none" stroke="#ff4a82" stroke-width="2.2" transform="translate(-12 -12)"/></g><g transform="translate(7.3 79.88) rotate(20.8) scale(0.5093)" opacity="0.88"><path d="M12 21s-1.45-1.32-3.6-3.3C5.4 14.6 2 11.5 2 7.8 2 5.1 4.1 3 6.8 3c1.7 0 3.2 .9 4.2 2.3C12 3.9 13.5 3 15.2 3 17.9 3 20 5.1 20 7.8c0 3.7-3.4 6.8-6.4 9.9C13.45 19.68 12 21 12 21z" fill="#ff6696" transform="translate(-12 -12)"/></g><g transform="translate(2.65 199.22) rotate(13.6) scale(0.5082)" opacity="0.93"><path d="M12 21s-1.45-1.32-3.6-3.3C5.4 14.6 2 11.5 2 7.8 2 5.1 4.1 3 6.8 3c1.7 0 3.2 .9 4.2 2.3C12 3.9 13.5 3 15.2 3 17.9 3 20 5.1 20 7.8c0 3.7-3.4 6.8-6.4 9.9C13.45 19.68 12 21 12 21z" fill="#ff4a82" transform="translate(-12 -12)"/></g><g transform="translate(13.1 28.38) rotate(16.3) scale(0.4911)" opacity="0.83"><path d="M12 21s-1.45-1.32-3.6-3.3C5.4 14.6 2 11.5 2 7.8 2 5.1 4.1 3 6.8 3c1.7 0 3.2 .9 4.2 2.3C12 3.9 13.5 3 15.2 3 17.9 3 20 5.1 20 7.8c0 3.7-3.4 6.8-6.4 9.9C13.45 19.68 12 21 12 21z" fill="#ff6696" transform="translate(-12 -12)"/></g><g transform="translate(18.47 162.71) rotate(11.4) scale(0.3309)" opacity="0.78"><path d="M12 21s-1.45-1.32-3.6-3.3C5.4 14.6 2 11.5 2 7.8 2 5.1 4.1 3 6.8 3c1.7 0 3.2 .9 4.2 2.3C12 3.9 13.5 3 15.2 3 17.9 3 20 5.1 20 7.8c0 3.7-3.4 6.8-6.4 9.9C13.45 19.68 12 21 12 21z" fill="none" stroke="#ff82aa" stroke-width="2.2" transform="translate(-12 -12)"/></g><g transform="translate(88.19 49.83) rotate(20.8) scale(0.2889)" opacity="0.65"><path d="M12 21s-1.45-1.32-3.6-3.3C5.4 14.6 2 11.5 2 7.8 2 5.1 4.1 3 6.8 3c1.7 0 3.2 .9 4.2 2.3C12 3.9 13.5 3 15.2 3 17.9 3 20 5.1 20 7.8c0 3.7-3.4 6.8-6.4 9.9C13.45 19.68 12 21 12 21z" fill="#ff6696" transform="translate(-12 -12)"/></g><g transform="translate(0.11 171.27) rotate(-4.5) scale(0.6281)" opacity="0.95"><path d="M12 21s-1.45-1.32-3.6-3.3C5.4 14.6 2 11.5 2 7.8 2 5.1 4.1 3 6.8 3c1.7 0 3.2 .9 4.2 2.3C12 3.9 13.5 3 15.2 3 17.9 3 20 5.1 20 7.8c0 3.7-3.4 6.8-6.4 9.9C13.45 19.68 12 21 12 21z" fill="#ff4a82" transform="translate(-12 -12)"/></g><g transform="translate(71.54 293.06) rotate(-19.4) scale(0.5038)" opacity="0.91"><path d="M12 21s-1.45-1.32-3.6-3.3C5.4 14.6 2 11.5 2 7.8 2 5.1 4.1 3 6.8 3c1.7 0 3.2 .9 4.2 2.3C12 3.9 13.5 3 15.2 3 17.9 3 20 5.1 20 7.8c0 3.7-3.4 6.8-6.4 9.9C13.45 19.68 12 21 12 21z" fill="#ff82aa" transform="translate(-12 -12)"/></g><g transform="translate(182.3 73.11) rotate(-13.9) scale(0.427)" opacity="0.79"><path d="M12 21s-1.45-1.32-3.6-3.3C5.4 14.6 2 11.5 2 7.8 2 5.1 4.1 3 6.8 3c1.7 0 3.2 .9 4.2 2.3C12 3.9 13.5 3 15.2 3 17.9 3 20 5.1 20 7.8c0 3.7-3.4 6.8-6.4 9.9C13.45 19.68 12 21 12 21z" fill="none" stroke="#ff82aa" stroke-width="2.2" transform="translate(-12 -12)"/></g><g transform="translate(133.16 1.28) rotate(-21.2) scale(0.4533)" opacity="0.94"><path d="M12 21s-1.45-1.32-3.6-3.3C5.4 14.6 2 11.5 2 7.8 2 5.1 4.1 3 6.8 3c1.7 0 3.2 .9 4.2 2.3C12 3.9 13.5 3 15.2 3 17.9 3 20 5.1 20 7.8c0 3.7-3.4 6.8-6.4 9.9C13.45 19.68 12 21 12 21z" fill="#ff82aa" transform="translate(-12 -12)"/></g><g transform="translate(145.05 228.32) rotate(-12.5) scale(0.3107)" opacity="0.51"><path d="M12 21s-1.45-1.32-3.6-3.3C5.4 14.6 2 11.5 2 7.8 2 5.1 4.1 3 6.8 3c1.7 0 3.2 .9 4.2 2.3C12 3.9 13.5 3 15.2 3 17.9 3 20 5.1 20 7.8c0 3.7-3.4 6.8-6.4 9.9C13.45 19.68 12 21 12 21z" fill="#ff82aa" transform="translate(-12 -12)"/></g><g transform="translate(81.31 298.13) rotate(-12.5) scale(0.6614)" opacity="0.94"><path d="M12 21s-1.45-1.32-3.6-3.3C5.4 14.6 2 11.5 2 7.8 2 5.1 4.1 3 6.8 3c1.7 0 3.2 .9 4.2 2.3C12 3.9 13.5 3 15.2 3 17.9 3 20 5.1 20 7.8c0 3.7-3.4 6.8-6.4 9.9C13.45 19.68 12 21 12 21z" fill="#ff82aa" transform="translate(-12 -12)"/></g><g transform="translate(12.84 77.37) rotate(-13) scale(0.3631)" opacity="0.83"><path d="M12 21s-1.45-1.32-3.6-3.3C5.4 14.6 2 11.5 2 7.8 2 5.1 4.1 3 6.8 3c1.7 0 3.2 .9 4.2 2.3C12 3.9 13.5 3 15.2 3 17.9 3 20 5.1 20 7.8c0 3.7-3.4 6.8-6.4 9.9C13.45 19.68 12 21 12 21z" fill="none" stroke="#ff6696" stroke-width="2.2" transform="translate(-12 -12)"/></g><g transform="translate(48.23 5.63) rotate(12.3) scale(0.4438)" opacity="0.92"><path d="M12 21s-1.45-1.32-3.6-3.3C5.4 14.6 2 11.5 2 7.8 2 5.1 4.1 3 6.8 3c1.7 0 3.2 .9 4.2 2.3C12 3.9 13.5 3 15.2 3 17.9 3 20 5.1 20 7.8c0 3.7-3.4 6.8-6.4 9.9C13.45 19.68 12 21 12 21z" fill="#ff4a82" transform="translate(-12 -12)"/></g><g transform="translate(72.9 253.5) rotate(-17.6) scale(0.3484)" opacity="0.67"><path d="M12 21s-1.45-1.32-3.6-3.3C5.4 14.6 2 11.5 2 7.8 2 5.1 4.1 3 6.8 3c1.7 0 3.2 .9 4.2 2.3C12 3.9 13.5 3 15.2 3 17.9 3 20 5.1 20 7.8c0 3.7-3.4 6.8-6.4 9.9C13.45 19.68 12 21 12 21z" fill="#ff4a82" transform="translate(-12 -12)"/></g><g transform="translate(124.47 3.09) rotate(-11.5) scale(0.633)" opacity="0.93"><path d="M12 21s-1.45-1.32-3.6-3.3C5.4 14.6 2 11.5 2 7.8 2 5.1 4.1 3 6.8 3c1.7 0 3.2 .9 4.2 2.3C12 3.9 13.5 3 15.2 3 17.9 3 20 5.1 20 7.8c0 3.7-3.4 6.8-6.4 9.9C13.45 19.68 12 21 12 21z" fill="#ff4a82" transform="translate(-12 -12)"/></g><g transform="translate(151.82 10.06) rotate(7.3) scale(0.517)" opacity="0.89"><path d="M12 21s-1.45-1.32-3.6-3.3C5.4 14.6 2 11.5 2 7.8 2 5.1 4.1 3 6.8 3c1.7 0 3.2 .9 4.2 2.3C12 3.9 13.5 3 15.2 3 17.9 3 20 5.1 20 7.8c0 3.7-3.4 6.8-6.4 9.9C13.45 19.68 12 21 12 21z" fill="none" stroke="#ff4a82" stroke-width="2.2" transform="translate(-12 -12)"/></g><g transform="translate(182.4 274.14) rotate(9.2) scale(0.5119)" opacity="0.79"><path d="M12 21s-1.45-1.32-3.6-3.3C5.4 14.6 2 11.5 2 7.8 2 5.1 4.1 3 6.8 3c1.7 0 3.2 .9 4.2 2.3C12 3.9 13.5 3 15.2 3 17.9 3 20 5.1 20 7.8c0 3.7-3.4 6.8-6.4 9.9C13.45 19.68 12 21 12 21z" fill="#ff4a82" transform="translate(-12 -12)"/></g><g transform="translate(163.48 187.21) rotate(3.1) scale(0.25)" opacity="0.62"><path d="M12 21s-1.45-1.32-3.6-3.3C5.4 14.6 2 11.5 2 7.8 2 5.1 4.1 3 6.8 3c1.7 0 3.2 .9 4.2 2.3C12 3.9 13.5 3 15.2 3 17.9 3 20 5.1 20 7.8c0 3.7-3.4 6.8-6.4 9.9C13.45 19.68 12 21 12 21z" fill="#ff82aa" transform="translate(-12 -12)"/></g><g transform="translate(31.44 120.47) rotate(-10.5) scale(0.3578)" opacity="0.66"><path d="M12 21s-1.45-1.32-3.6-3.3C5.4 14.6 2 11.5 2 7.8 2 5.1 4.1 3 6.8 3c1.7 0 3.2 .9 4.2 2.3C12 3.9 13.5 3 15.2 3 17.9 3 20 5.1 20 7.8c0 3.7-3.4 6.8-6.4 9.9C13.45 19.68 12 21 12 21z" fill="#ff6696" transform="translate(-12 -12)"/></g><g transform="translate(139.66 294.07) rotate(14.2) scale(0.593)" opacity="0.91"><path d="M12 21s-1.45-1.32-3.6-3.3C5.4 14.6 2 11.5 2 7.8 2 5.1 4.1 3 6.8 3c1.7 0 3.2 .9 4.2 2.3C12 3.9 13.5 3 15.2 3 17.9 3 20 5.1 20 7.8c0 3.7-3.4 6.8-6.4 9.9C13.45 19.68 12 21 12 21z" fill="none" stroke="#ff82aa" stroke-width="2.2" transform="translate(-12 -12)"/></g><g transform="translate(173.63 8.7) rotate(10.7) scale(0.5083)" opacity="0.9"><path d="M12 21s-1.45-1.32-3.6-3.3C5.4 14.6 2 11.5 2 7.8 2 5.1 4.1 3 6.8 3c1.7 0 3.2 .9 4.2 2.3C12 3.9 13.5 3 15.2 3 17.9 3 20 5.1 20 7.8c0 3.7-3.4 6.8-6.4 9.9C13.45 19.68 12 21 12 21z" fill="#ff6696" transform="translate(-12 -12)"/></g><g transform="translate(157.44 190.66) rotate(15.6) scale(0.2262)" opacity="0.56"><path d="M12 21s-1.45-1.32-3.6-3.3C5.4 14.6 2 11.5 2 7.8 2 5.1 4.1 3 6.8 3c1.7 0 3.2 .9 4.2 2.3C12 3.9 13.5 3 15.2 3 17.9 3 20 5.1 20 7.8c0 3.7-3.4 6.8-6.4 9.9C13.45 19.68 12 21 12 21z" fill="#ff4a82" transform="translate(-12 -12)"/></g><g transform="translate(38.58 30.58) rotate(1.8) scale(0.4427)" opacity="0.76"><path d="M12 21s-1.45-1.32-3.6-3.3C5.4 14.6 2 11.5 2 7.8 2 5.1 4.1 3 6.8 3c1.7 0 3.2 .9 4.2 2.3C12 3.9 13.5 3 15.2 3 17.9 3 20 5.1 20 7.8c0 3.7-3.4 6.8-6.4 9.9C13.45 19.68 12 21 12 21z" fill="#ff6696" transform="translate(-12 -12)"/></g><g transform="translate(8.78 173.27) rotate(-8.2) scale(0.5135)" opacity="0.87"><path d="M12 21s-1.45-1.32-3.6-3.3C5.4 14.6 2 11.5 2 7.8 2 5.1 4.1 3 6.8 3c1.7 0 3.2 .9 4.2 2.3C12 3.9 13.5 3 15.2 3 17.9 3 20 5.1 20 7.8c0 3.7-3.4 6.8-6.4 9.9C13.45 19.68 12 21 12 21z" fill="none" stroke="#ff82aa" stroke-width="2.2" transform="translate(-12 -12)"/></g><g transform="translate(39.85 201.03) rotate(6.1) scale(0.2531)" opacity="0.58"><path d="M12 21s-1.45-1.32-3.6-3.3C5.4 14.6 2 11.5 2 7.8 2 5.1 4.1 3 6.8 3c1.7 0 3.2 .9 4.2 2.3C12 3.9 13.5 3 15.2 3 17.9 3 20 5.1 20 7.8c0 3.7-3.4 6.8-6.4 9.9C13.45 19.68 12 21 12 21z" fill="#ff4a82" transform="translate(-12 -12)"/></g><g transform="translate(172.91 194.41) rotate(-10.4) scale(0.3921)" opacity="0.7"><path d="M12 21s-1.45-1.32-3.6-3.3C5.4 14.6 2 11.5 2 7.8 2 5.1 4.1 3 6.8 3c1.7 0 3.2 .9 4.2 2.3C12 3.9 13.5 3 15.2 3 17.9 3 20 5.1 20 7.8c0 3.7-3.4 6.8-6.4 9.9C13.45 19.68 12 21 12 21z" fill="#ff82aa" transform="translate(-12 -12)"/></g><g transform="translate(55.24 44.81) rotate(15.5) scale(0.3458)" opacity="0.68"><path d="M12 21s-1.45-1.32-3.6-3.3C5.4 14.6 2 11.5 2 7.8 2 5.1 4.1 3 6.8 3c1.7 0 3.2 .9 4.2 2.3C12 3.9 13.5 3 15.2 3 17.9 3 20 5.1 20 7.8c0 3.7-3.4 6.8-6.4 9.9C13.45 19.68 12 21 12 21z" fill="#ff4a82" transform="translate(-12 -12)"/></g><g transform="translate(152.75 30.6) rotate(20.9) scale(0.3331)" opacity="0.76"><path d="M12 21s-1.45-1.32-3.6-3.3C5.4 14.6 2 11.5 2 7.8 2 5.1 4.1 3 6.8 3c1.7 0 3.2 .9 4.2 2.3C12 3.9 13.5 3 15.2 3 17.9 3 20 5.1 20 7.8c0 3.7-3.4 6.8-6.4 9.9C13.45 19.68 12 21 12 21z" fill="none" stroke="#ff4a82" stroke-width="2.2" transform="translate(-12 -12)"/></g><g transform="translate(145.21 7.99) rotate(13.7) scale(0.5583)" opacity="0.9"><path d="M12 21s-1.45-1.32-3.6-3.3C5.4 14.6 2 11.5 2 7.8 2 5.1 4.1 3 6.8 3c1.7 0 3.2 .9 4.2 2.3C12 3.9 13.5 3 15.2 3 17.9 3 20 5.1 20 7.8c0 3.7-3.4 6.8-6.4 9.9C13.45 19.68 12 21 12 21z" fill="#ff6696" transform="translate(-12 -12)"/></g><g transform="translate(80.4 1.21) rotate(-4.2) scale(0.553)" opacity="0.94"><path d="M12 21s-1.45-1.32-3.6-3.3C5.4 14.6 2 11.5 2 7.8 2 5.1 4.1 3 6.8 3c1.7 0 3.2 .9 4.2 2.3C12 3.9 13.5 3 15.2 3 17.9 3 20 5.1 20 7.8c0 3.7-3.4 6.8-6.4 9.9C13.45 19.68 12 21 12 21z" fill="#ff6696" transform="translate(-12 -12)"/></g><g transform="translate(186.51 298.65) rotate(9.4) scale(0.6165)" opacity="0.94"><path d="M12 21s-1.45-1.32-3.6-3.3C5.4 14.6 2 11.5 2 7.8 2 5.1 4.1 3 6.8 3c1.7 0 3.2 .9 4.2 2.3C12 3.9 13.5 3 15.2 3 17.9 3 20 5.1 20 7.8c0 3.7-3.4 6.8-6.4 9.9C13.45 19.68 12 21 12 21z" fill="#ff6696" transform="translate(-12 -12)"/></g><g transform="translate(110.22 44.03) rotate(4.3) scale(0.3918)" opacity="0.68"><path d="M12 21s-1.45-1.32-3.6-3.3C5.4 14.6 2 11.5 2 7.8 2 5.1 4.1 3 6.8 3c1.7 0 3.2 .9 4.2 2.3C12 3.9 13.5 3 15.2 3 17.9 3 20 5.1 20 7.8c0 3.7-3.4 6.8-6.4 9.9C13.45 19.68 12 21 12 21z" fill="none" stroke="#ff82aa" stroke-width="2.2" transform="translate(-12 -12)"/></g><g transform="translate(196.74 256.63) rotate(-2.5) scale(0.5515)" opacity="0.92"><path d="M12 21s-1.45-1.32-3.6-3.3C5.4 14.6 2 11.5 2 7.8 2 5.1 4.1 3 6.8 3c1.7 0 3.2 .9 4.2 2.3C12 3.9 13.5 3 15.2 3 17.9 3 20 5.1 20 7.8c0 3.7-3.4 6.8-6.4 9.9C13.45 19.68 12 21 12 21z" fill="#ff4a82" transform="translate(-12 -12)"/></g><g transform="translate(186.96 214.35) rotate(16.5) scale(0.3947)" opacity="0.83"><path d="M12 21s-1.45-1.32-3.6-3.3C5.4 14.6 2 11.5 2 7.8 2 5.1 4.1 3 6.8 3c1.7 0 3.2 .9 4.2 2.3C12 3.9 13.5 3 15.2 3 17.9 3 20 5.1 20 7.8c0 3.7-3.4 6.8-6.4 9.9C13.45 19.68 12 21 12 21z" fill="#ff6696" transform="translate(-12 -12)"/></g><g transform="translate(172.14 19) rotate(-7.1) scale(0.4926)" opacity="0.83"><path d="M12 21s-1.45-1.32-3.6-3.3C5.4 14.6 2 11.5 2 7.8 2 5.1 4.1 3 6.8 3c1.7 0 3.2 .9 4.2 2.3C12 3.9 13.5 3 15.2 3 17.9 3 20 5.1 20 7.8c0 3.7-3.4 6.8-6.4 9.9C13.45 19.68 12 21 12 21z" fill="#ff82aa" transform="translate(-12 -12)"/></g></g></svg>
